<svg width="24" height="24" viewBox="0 0 24 24" fill="none" xmlns="http://www.w3.org/2000/svg">
<path d="M12 19.5C7.05 19.5 3 15.45 3 10.5C3 5.55 7.05 1.5 12 1.5C16.95 1.5 21 5.55 21 10.5C21 15.45 18.1 20.75 12 22.5V19.5Z" fill="#4CAF50"/>
<path d="M11 8V11.5C11 13.15 9.65 14.5 8 14.5V13C8.85 13 9.5 12.35 9.5 11.5H7.5C7.25 11.5 7 11.25 7 11V8C7 7.75 7.25 7.5 7.5 7.5H10.5C10.75 7.5 11 7.75 11 8ZM16.5 7.5H13.5C13.25 7.5 13 7.75 13 8V11C13 11.25 13.25 11.5 13.5 11.5H15.5C15.5 12.35 14.85 13 14 13V14.5C15.65 14.5 17 13.15 17 11.5V8C17 7.75 16.75 7.5 16.5 7.5Z" fill="white"/>
</svg>
