<svg width="24" height="24" viewBox="0 0 24 24" fill="none" xmlns="http://www.w3.org/2000/svg">
<path d="M17.0059 20.9904L7.01114 20.9999C4.8123 21.0019 3.01175 19.2048 3.00925 17.006L2.99976 7.01126C2.99776 4.81242 4.79481 3.01187 6.99365 3.00937L16.9884 2.99988C19.1872 2.99788 20.9878 4.79493 20.9903 6.99377L20.9998 16.9885C21.0023 19.1878 19.2047 20.9884 17.0059 20.9904Z" fill="url(#paint0_radial_2_1286)"/>
<path d="M17.0084 20.9949L7.00838 21.0044C4.80837 21.0064 3.00687 19.2084 3.00437 17.0084L2.99487 7.00844C2.99287 4.80844 4.79088 3.00694 6.99088 3.00444L16.9909 2.99494C19.1909 2.99294 20.9924 4.79094 20.9949 6.99094L21.0044 16.9909C21.0069 19.1914 19.2084 20.9929 17.0084 20.9949Z" fill="url(#paint1_radial_2_1286)"/>
<path d="M12 15.4999C10.0705 15.4999 8.5 13.9299 8.5 11.9999C8.5 10.0699 10.0705 8.49994 12 8.49994C13.9295 8.49994 15.5 10.0699 15.5 11.9999C15.5 13.9299 13.9295 15.4999 12 15.4999ZM12 9.49994C10.6215 9.49994 9.5 10.6214 9.5 11.9999C9.5 13.3784 10.6215 14.4999 12 14.4999C13.3785 14.4999 14.5 13.3784 14.5 11.9999C14.5 10.6214 13.3785 9.49994 12 9.49994Z" fill="white"/>
<path d="M15.75 9C16.1642 9 16.5 8.66421 16.5 8.25C16.5 7.83579 16.1642 7.5 15.75 7.5C15.3358 7.5 15 7.83579 15 8.25C15 8.66421 15.3358 9 15.75 9Z" fill="white"/>
<path d="M15 18.4999H9C7.0705 18.4999 5.5 16.9299 5.5 14.9999V8.99994C5.5 7.06994 7.0705 5.49994 9 5.49994H15C16.9295 5.49994 18.5 7.06994 18.5 8.99994V14.9999C18.5 16.9299 16.9295 18.4999 15 18.4999ZM9 6.49994C7.6215 6.49994 6.5 7.62144 6.5 8.99994V14.9999C6.5 16.3784 7.6215 17.4999 9 17.4999H15C16.3785 17.4999 17.5 16.3784 17.5 14.9999V8.99994C17.5 7.62144 16.3785 6.49994 15 6.49994H9Z" fill="white"/>
<defs>
<radialGradient id="paint0_radial_2_1286" cx="0" cy="0" r="1" gradientUnits="userSpaceOnUse" gradientTransform="translate(9.69123 21.0129) scale(22.4377)">
<stop stop-color="#FFDD55"/>
<stop offset="0.328" stop-color="#FF543F"/>
<stop offset="0.348" stop-color="#FC5245"/>
<stop offset="0.504" stop-color="#E64771"/>
<stop offset="0.643" stop-color="#D53E91"/>
<stop offset="0.761" stop-color="#CC39A4"/>
<stop offset="0.841" stop-color="#C837AB"/>
</radialGradient>
<radialGradient id="paint1_radial_2_1286" cx="0" cy="0" r="1" gradientUnits="userSpaceOnUse" gradientTransform="translate(5.89287 2.77009) scale(14.9065 9.9322)">
<stop stop-color="#4168C9"/>
<stop offset="0.999" stop-color="#4168C9" stop-opacity="0"/>
</radialGradient>
</defs>
</svg>
