<svg width="24" height="24" viewBox="0 0 24 24" fill="none" xmlns="http://www.w3.org/2000/svg">
<g clip-path="url(#clip0_2_1282)">
<path fill-rule="evenodd" clip-rule="evenodd" d="M8.474 10.7929C8.474 10.7844 8.46546 9.44086 9.59887 9.44986C10.739 9.45886 10.7237 10.7929 10.7237 10.7929V16.649C10.7237 16.649 10.5775 17.5507 9.59347 17.5489C8.58829 17.5471 8.46591 16.649 8.46591 16.649L8.474 10.7929ZM0.375 7.91735C0.375 7.91735 0.410096 6.74659 1.49986 6.75019C2.54148 6.75379 2.62112 7.9412 2.62112 7.9412L2.62472 12.1495L4.87445 9.8998C4.87445 9.8998 5.80493 9.1484 6.44925 9.8998C7.13542 10.6998 6.22428 11.6996 6.22428 11.6996L4.87445 13.0494C4.87445 13.0494 7.12417 16.1963 7.12417 16.424C7.12417 17.0494 6.61618 17.5498 5.99931 17.5498C5.58491 17.5498 5.06747 17.4386 4.87445 17.0989L3.07467 14.3993L2.62472 14.8492V16.649C2.62472 16.649 2.47354 17.548 1.49986 17.5493C0.446541 17.5511 0.375 16.649 0.375 16.649V7.91735ZM12.5235 7.91735C12.5235 7.91735 12.5586 6.74659 13.6484 6.75019C14.69 6.75379 14.7696 7.9412 14.7696 7.9412L14.7732 12.1495L17.023 9.8998C17.023 9.8998 17.9534 9.1484 18.5978 9.8998C19.2839 10.6998 18.3728 11.6996 18.3728 11.6996L17.023 13.0494C17.023 13.0494 19.2727 16.1963 19.2727 16.424C19.2727 17.0494 18.7647 17.5498 18.1478 17.5498C17.7334 17.5498 17.216 17.4386 17.023 17.0989L15.2232 14.3993L14.7732 14.8492V16.649C14.7732 16.649 14.6221 17.548 13.6484 17.5493C12.595 17.5511 12.5235 16.649 12.5235 16.649V7.91735Z" fill="#5DCD11"/>
</g>
<defs>
<clipPath id="clip0_2_1282">
<rect width="24" height="24" fill="white"/>
</clipPath>
</defs>
</svg>
