<svg width="24" height="24" viewBox="0 0 24 24" fill="none" xmlns="http://www.w3.org/2000/svg">
<path d="M6.25 21H17.75C19.545 21 21 19.545 21 17.75V6.25C21 4.455 19.545 3 17.75 3H6.25C4.455 3 3 4.455 3 6.25V17.75C3 19.545 4.455 21 6.25 21Z" fill="#00C300"/>
<path d="M18.5563 11.208C18.5563 8.27552 15.6163 5.88953 12.0029 5.88953C8.38935 5.88953 5.44885 8.27552 5.44885 11.208C5.44885 13.837 7.78035 16.039 10.9299 16.4555C11.1434 16.5015 11.4338 16.5965 11.5073 16.7785C11.5733 16.944 11.5503 17.2035 11.5283 17.371C11.5283 17.371 11.4519 17.8335 11.4349 17.932C11.4064 18.0975 11.3033 18.58 12.0023 18.2855C12.7018 17.991 15.7763 16.063 17.1513 14.48H17.1508C18.1013 13.439 18.5563 12.3815 18.5563 11.208ZM9.43735 12.953H8.13535C7.94585 12.953 7.79185 12.799 7.79185 12.609V10.0045C7.79185 9.81502 7.94585 9.66102 8.13535 9.66102C8.32485 9.66102 8.47885 9.81502 8.47885 10.0045V12.265H9.43735C9.62685 12.265 9.78085 12.419 9.78085 12.6085C9.78085 12.7985 9.62685 12.953 9.43735 12.953ZM10.7839 12.609C10.7839 12.7985 10.6299 12.953 10.4404 12.953C10.2509 12.953 10.0969 12.799 10.0969 12.609V10.0045C10.0969 9.81502 10.2509 9.66102 10.4404 9.66102C10.6299 9.66102 10.7839 9.81502 10.7839 10.0045V12.609ZM13.9188 12.609C13.9188 12.7575 13.8249 12.8885 13.6838 12.935C13.6483 12.947 13.6113 12.953 13.5748 12.953C13.4673 12.953 13.3648 12.9015 13.3003 12.8155L11.9658 10.998V12.609C11.9658 12.7985 11.8118 12.953 11.6219 12.953C11.4323 12.953 11.2779 12.799 11.2779 12.609V10.0045C11.2779 9.85652 11.3723 9.72552 11.5128 9.67852C11.5483 9.66652 11.5848 9.66102 11.6219 9.66102C11.7288 9.66102 11.8318 9.71252 11.8963 9.79852L13.2313 11.616V10.0045C13.2313 9.81502 13.3858 9.66102 13.5753 9.66102C13.7648 9.66102 13.9188 9.81502 13.9188 10.0045V12.609ZM16.0258 10.963C16.2153 10.963 16.3698 11.117 16.3698 11.307C16.3698 11.4965 16.2158 11.6505 16.0258 11.6505H15.0673V12.2655H16.0258C16.2153 12.2655 16.3698 12.4195 16.3698 12.609C16.3698 12.7985 16.2153 12.953 16.0258 12.953H14.7238C14.5348 12.953 14.3803 12.799 14.3803 12.609V11.3075C14.3803 11.307 14.3803 11.307 14.3803 11.307V11.3065V10.006C14.3803 10.0055 14.3803 10.0055 14.3803 10.005C14.3803 9.81552 14.5343 9.66152 14.7238 9.66152H16.0258C16.2153 9.66152 16.3698 9.81552 16.3698 10.005C16.3698 10.1945 16.2158 10.3485 16.0258 10.3485H15.0673V10.9635H16.0258V10.963Z" fill="white"/>
</svg>
