<svg width="24" height="24" viewBox="0 0 24 24" fill="none" xmlns="http://www.w3.org/2000/svg">
<rect x="3" y="2.99994" width="18" height="18" rx="4" fill="url(#paint0_linear_2_1270)"/>
<path d="M18.2745 12.0843C18.2465 11.3256 17.6094 10.733 16.8483 10.7588C16.511 10.7705 16.1902 10.9087 15.9466 11.1405C14.8739 10.4099 13.6139 10.0093 12.3188 9.98129L12.93 7.04203L14.9466 7.46597C15.0027 7.98356 15.4665 8.35819 15.9841 8.30203C16.5017 8.24572 16.8763 7.7821 16.8202 7.2645C16.7639 6.74691 16.3002 6.37214 15.7826 6.42845C15.4852 6.45893 15.2182 6.63224 15.0706 6.88973L12.7614 6.42845C12.6046 6.39329 12.4476 6.49162 12.4124 6.65092V6.65559L11.7169 9.92498C10.4054 9.94613 9.12904 10.3489 8.04222 11.0843C7.48961 10.5644 6.61839 10.5902 6.09846 11.1453C5.57853 11.6979 5.60421 12.5691 6.1593 13.089C6.26696 13.1898 6.39111 13.2765 6.52926 13.3373C6.51992 13.4755 6.51992 13.6136 6.52926 13.7519C6.52926 15.862 8.98842 17.5787 12.0213 17.5787C15.0542 17.5787 17.5134 15.8643 17.5134 13.7519C17.5227 13.6136 17.5227 13.4755 17.5134 13.3373C17.9865 13.1009 18.2839 12.6137 18.2745 12.0843ZM8.8526 13.0282C8.8526 12.5083 9.27653 12.0843 9.79646 12.0843C10.3164 12.0843 10.7403 12.5083 10.7403 13.0282C10.7403 13.5481 10.3164 13.9721 9.79646 13.9721C9.2742 13.9674 8.8526 13.5481 8.8526 13.0282ZM14.3258 15.6185C13.6561 16.122 12.8364 16.3796 11.998 16.3446C11.1595 16.3796 10.3397 16.122 9.66998 15.6185C9.58099 15.5107 9.59733 15.3492 9.70514 15.2601C9.79879 15.1829 9.93228 15.1829 10.0283 15.2601C10.595 15.6747 11.2859 15.8855 11.9885 15.8527C12.6911 15.8901 13.3845 15.6887 13.9582 15.2789C14.0612 15.1782 14.2299 15.1806 14.3305 15.2836C14.4313 15.3867 14.429 15.5552 14.3258 15.656V15.6185ZM14.1572 14.0049C13.6373 14.0049 13.2135 13.581 13.2135 13.061C13.2135 12.5411 13.6373 12.1172 14.1572 12.1172C14.6771 12.1172 15.1011 12.5411 15.1011 13.061C15.1222 13.581 14.717 14.0189 14.197 14.0399C14.1807 14.0399 14.1667 14.0399 14.1502 14.0399L14.1572 14.0049Z" fill="white"/>
<defs>
<linearGradient id="paint0_linear_2_1270" x1="12" y1="2.99994" x2="12" y2="20.9999" gradientUnits="userSpaceOnUse">
<stop stop-color="#FF4501"/>
<stop offset="1" stop-color="#EF3E01"/>
</linearGradient>
</defs>
</svg>
