<svg width="24" height="24" viewBox="0 0 24 24" fill="none" xmlns="http://www.w3.org/2000/svg">
<path d="M17.0092 21H6.99082C4.78672 21 3 19.2133 3 17.0092V6.99082C3 4.78672 4.78672 3 6.99082 3H17.0092C19.2133 3 21.0001 4.78672 21.0001 6.99082V17.0092C21 19.2133 19.2133 21 17.0092 21Z" fill="#41A0D7"/>
<path d="M11.8438 6.93747C8.82473 6.93747 6.3772 9.19168 6.3772 11.9723C6.3772 13.4386 7.058 14.7583 8.1441 15.6785L8.28726 17.7066C8.29146 17.7658 8.32578 17.8187 8.37824 17.8466C8.4307 17.8745 8.49374 17.8735 8.54519 17.844L10.3389 16.8138C10.817 16.9397 11.3219 17.0071 11.8438 17.0071C14.863 17.0071 17.3105 14.7529 17.3105 11.9723C17.3104 9.19162 14.863 6.93741 11.8438 6.93747Z" fill="white"/>
<path d="M7.8044 19.4597L7.53918 18.5699L7.90898 18.4597L8.03736 18.8905L8.43095 18.6733L8.61739 19.0112L7.8044 19.4597Z" fill="#C8E6EB"/>
<path d="M9.10778 18.7407L8.92134 18.4029L10.126 17.7382L10.1984 17.7552C10.2295 17.7626 10.2608 17.7697 10.2921 17.7766L10.2265 18.074L10.2474 18.1119L10.2139 18.1304L10.2088 18.1534C10.2001 18.1515 10.1915 18.1496 10.1827 18.1477L9.10778 18.7407ZM11.844 18.3307C11.4858 18.3307 11.1259 18.3055 10.7744 18.2558L10.8285 17.8737C11.2748 17.9369 11.737 17.9581 12.1889 17.9368L12.2071 18.3222C12.087 18.3278 11.9648 18.3307 11.844 18.3307ZM12.7794 18.2735L12.7322 17.8906C13.1847 17.8348 13.6316 17.7354 14.0604 17.5953L14.1803 17.9621C13.7278 18.1099 13.2565 18.2147 12.7794 18.2735ZM7.37587 18.0221L6.97601 16.6802L7.3458 16.5699L7.74566 17.9119L7.37587 18.0221ZM14.7194 17.7622L14.5711 17.4059C14.9919 17.2308 15.3945 17.0136 15.7676 16.7607L15.9842 17.0802C15.5896 17.3477 15.1641 17.5771 14.7194 17.7622ZM16.4473 16.7374L16.2051 16.437C16.5608 16.1503 16.8837 15.8278 17.1649 15.4786L17.4654 15.7206C17.167 16.0913 16.8244 16.4334 16.4473 16.7374ZM6.74786 16.2989C6.40141 15.9595 6.09427 15.585 5.83499 15.1858L6.15865 14.9757C6.40253 15.3512 6.69159 15.7037 7.01789 16.0233L6.74786 16.2989ZM17.8071 15.2556L17.4863 15.0413C17.7393 14.6625 17.9469 14.2578 18.1034 13.8387L18.4649 13.9735C18.298 14.4207 18.0767 14.852 17.8071 15.2556ZM5.5429 14.6876C5.31705 14.2584 5.1431 13.8053 5.02575 13.341L5.39991 13.2464C5.50976 13.6813 5.67279 14.1057 5.88443 14.5079L5.5429 14.6876ZM18.6408 13.4231L18.2681 13.3232C18.3845 12.8882 18.4483 12.4387 18.4578 11.9871L18.8436 11.9951C18.8334 12.4778 18.7652 12.9582 18.6408 13.4231ZM4.91126 12.7739C4.86591 12.4758 4.8429 12.1709 4.8429 11.8676C4.8429 11.689 4.8509 11.5086 4.86658 11.3316L5.25099 11.3657C5.23626 11.5315 5.22876 11.7003 5.22876 11.8676C5.22876 12.1515 5.25026 12.437 5.2927 12.7159L4.91126 12.7739ZM18.4434 11.446C18.4099 10.9965 18.3219 10.5508 18.182 10.1214L18.5488 10.0017C18.6984 10.4607 18.7924 10.937 18.8282 11.4174L18.4434 11.446ZM5.32483 10.8299L4.94558 10.7588C5.03387 10.2873 5.17966 9.82443 5.37886 9.38308L5.73057 9.54181C5.54402 9.95511 5.40753 10.3885 5.32483 10.8299ZM17.9898 9.61509C17.8114 9.20482 17.5831 8.81117 17.311 8.44518L17.6207 8.21497C17.9103 8.60458 18.1535 9.02387 18.3436 9.46113L17.9898 9.61509ZM5.97625 9.05886L5.64083 8.86817C5.87614 8.4542 6.16139 8.06257 6.48858 7.70414L6.77356 7.96431C6.46574 8.30152 6.19739 8.66981 5.97625 9.05886ZM16.9684 8.02433C16.6702 7.6893 16.3324 7.3826 15.9641 7.11286L16.1921 6.80162C16.5823 7.08738 16.9405 7.4125 17.2567 7.76785L16.9684 8.02433ZM7.15696 7.57912L6.89533 7.29549C7.24531 6.97266 7.63307 6.68338 8.04794 6.4358L8.24569 6.76725C7.85366 7.0011 7.48734 7.27427 7.15696 7.57912ZM15.5124 6.80968C15.1281 6.57398 14.7164 6.37506 14.2884 6.21863L14.4209 5.85622C14.8729 6.02144 15.3081 6.23162 15.7142 6.48076L15.5124 6.80968ZM8.72393 6.5073L8.5535 6.16118C8.98102 5.95067 9.43334 5.78109 9.89792 5.6573L9.9973 6.03017C9.55724 6.14741 9.12877 6.30798 8.72393 6.5073ZM13.7698 6.05178C13.3352 5.93052 12.8844 5.8504 12.4299 5.81367L12.461 5.42904C12.9399 5.46767 13.4153 5.55215 13.8736 5.68009L13.7698 6.05178ZM10.529 5.91025L10.4586 5.53082C10.9117 5.44684 11.3777 5.40424 11.844 5.40424L11.8869 5.40435L11.8854 5.79021L11.844 5.7901C11.4012 5.79016 10.9588 5.83063 10.529 5.91025Z" fill="#C8E6EB"/>
</svg>
