<svg width="24" height="24" viewBox="0 0 24 24" fill="none" xmlns="http://www.w3.org/2000/svg">
<path d="M17.0059 20.9904L7.01114 20.9999C4.8123 21.0019 3.01175 19.2049 3.00925 17.006L2.99976 7.01129C2.99776 4.81245 4.79481 3.0119 6.99365 3.00941L16.9884 2.99991C19.1872 2.99791 20.9878 4.79496 20.9903 6.9938L20.9997 16.9885C21.0022 19.1879 19.2047 20.9884 17.0059 20.9904Z" fill="url(#paint0_linear_2_1228)"/>
<path opacity="0.07" d="M7.30666 10.2525C7.22266 10.2525 7.13566 10.272 7.05516 10.3125C6.92266 10.3785 6.82366 10.4925 6.77666 10.633C6.70116 10.8595 6.77866 11.108 6.96966 11.251L8.80765 12.399L8.73616 12.59C8.70316 12.6795 7.90116 14.7915 6.38466 15.6185C6.30416 15.6625 6.25266 15.7215 6.24766 15.777C6.24216 15.833 6.28666 15.8835 6.32516 15.9155C6.65316 16.19 6.99216 16.385 7.66766 16.509L7.87216 16.5465L7.87266 16.7545C7.87366 17.0585 7.97016 17.38 8.06016 17.38C8.50666 17.38 9.43566 17.38 10.3642 17.844C10.8792 18.1015 11.6002 18.2555 11.9997 18.2555C12.3992 18.2555 13.1202 18.1015 13.6352 17.844C14.5632 17.38 15.4927 17.38 15.9392 17.38C16.0297 17.38 16.1262 17.0585 16.1267 16.7545L16.1272 16.5465L16.3317 16.509C17.0072 16.3855 17.3462 16.1905 17.6747 15.9155C17.7132 15.8835 17.7577 15.833 17.7522 15.777C17.7467 15.7215 17.6952 15.6625 17.6152 15.6185C16.0992 14.7915 15.2972 12.6795 15.2637 12.59L15.1922 12.399L17.0472 11.239C17.2207 11.1075 17.2982 10.8595 17.2227 10.633C17.1762 10.4925 17.0772 10.379 16.9447 10.3125C16.8127 10.246 16.6627 10.236 16.5217 10.2825L15.2487 10.8035V9.05002C15.2487 7.23202 13.7917 5.75302 12.0007 5.75302C10.2077 5.75302 8.75065 7.23202 8.75065 9.05002V10.804L7.46266 10.2775C7.41416 10.261 7.36116 10.2525 7.30666 10.2525Z" fill="black"/>
<path opacity="0.07" d="M12.0001 18.5054C12.4341 18.5054 13.1936 18.3444 13.7471 18.0679C14.6226 17.6304 15.5016 17.6304 15.9391 17.6304C16.3766 17.6304 16.3766 16.7549 16.3766 16.7549C17.0721 16.6279 17.4546 16.4259 17.8351 16.1074C18.1006 15.8849 18.0386 15.5649 17.7346 15.3994C16.2831 14.6079 15.4976 12.5029 15.4976 12.5029L17.1796 11.4509C17.4566 11.2434 17.5691 10.8819 17.4601 10.5534C17.3196 10.1319 16.8636 9.90437 16.4426 10.0454L15.4991 10.4309V9.04987C15.4991 7.11787 13.9331 5.50287 12.0011 5.50287H11.9991C10.0671 5.50287 8.50106 7.11787 8.50106 9.04987V10.4314L7.55756 10.0459C7.13606 9.90487 6.68056 10.1324 6.54006 10.5539C6.43057 10.8819 6.54356 11.2434 6.82056 11.4514L8.50256 12.5034C8.50256 12.5034 7.71756 14.6079 6.26557 15.3999C5.96157 15.5654 5.89957 15.8859 6.16507 16.1079C6.54506 16.4264 6.92806 16.6284 7.62356 16.7554C7.62356 16.7554 7.62356 17.6309 8.06106 17.6309C8.49856 17.6309 9.37756 17.6309 10.2531 18.0684C10.8066 18.3444 11.5661 18.5054 12.0001 18.5054Z" stroke="black" stroke-width="3"/>
<path d="M12.0001 18.5054C12.4341 18.5054 13.1936 18.3444 13.7471 18.0679C14.6226 17.6304 15.5016 17.6304 15.9391 17.6304C16.3766 17.6304 16.3766 16.7549 16.3766 16.7549C17.0721 16.6279 17.4546 16.4259 17.8351 16.1074C18.1006 15.8849 18.0386 15.5649 17.7346 15.3994C16.2831 14.6079 15.4976 12.5029 15.4976 12.5029L17.1796 11.4509C17.4566 11.2434 17.5691 10.8819 17.4601 10.5534C17.3196 10.1319 16.8636 9.90437 16.4426 10.0454L15.4991 10.4309V9.04987C15.4991 7.11787 13.9331 5.50287 12.0011 5.50287H11.9991C10.0671 5.50287 8.50106 7.11787 8.50106 9.04987V10.4314L7.55756 10.0459C7.13606 9.90487 6.68056 10.1324 6.54006 10.5539C6.43057 10.8819 6.54356 11.2434 6.82056 11.4514L8.50256 12.5034C8.50256 12.5034 7.71756 14.6079 6.26557 15.3999C5.96157 15.5654 5.89957 15.8859 6.16507 16.1079C6.54506 16.4264 6.92806 16.6284 7.62356 16.7554C7.62356 16.7554 7.62356 17.6309 8.06106 17.6309C8.49856 17.6309 9.37756 17.6309 10.2531 18.0684C10.8066 18.3444 11.5661 18.5054 12.0001 18.5054Z" fill="white"/>
<defs>
<linearGradient id="paint0_linear_2_1228" x1="10.3014" y1="2.36574" x2="13.6986" y2="21.6346" gradientUnits="userSpaceOnUse">
<stop stop-color="#FEDE00"/>
<stop offset="1" stop-color="#FFD000"/>
</linearGradient>
</defs>
</svg>
