<svg width="24" height="24" viewBox="0 0 24 24" fill="none" xmlns="http://www.w3.org/2000/svg">
<path d="M20.6601 3.97505C20.3531 3.71468 19.8708 3.67743 19.3722 3.87762H19.3713C18.8469 4.08804 4.52653 10.2305 3.94356 10.4815C3.83753 10.5183 2.91149 10.8638 3.00688 11.6335C3.09203 12.3274 3.8363 12.6148 3.92719 12.6479L7.56787 13.8945C7.80941 14.6986 8.69983 17.665 8.89674 18.2987C9.01956 18.6938 9.21975 19.2129 9.5706 19.3197C9.87846 19.4385 10.1847 19.33 10.3828 19.1744L12.6087 17.1099L16.2019 19.9121L16.2874 19.9633C16.5314 20.0714 16.7652 20.1254 16.9883 20.1254C17.1606 20.1254 17.326 20.0931 17.4841 20.0284C18.0224 19.8073 18.2377 19.2943 18.2603 19.2362L20.9442 5.2855C21.108 4.54042 20.8803 4.16133 20.6601 3.97505ZM10.7787 14.3932L9.55054 17.6683L8.32237 13.5744L17.7383 6.61479L10.7787 14.3932Z" fill="#2C9AFF"/>
</svg>
