<svg width="24" height="24" viewBox="0 0 24 24" fill="none" xmlns="http://www.w3.org/2000/svg">
<path fill-rule="evenodd" clip-rule="evenodd" d="M5.452 3H18.5475C19.902 3 21 4.098 21 5.452V18.5475C21 19.902 19.902 21 18.548 21H5.452C4.098 21 3 19.902 3 18.548V5.452C3 4.098 4.098 3 5.452 3Z" fill="#212121"/>
<path fill-rule="evenodd" clip-rule="evenodd" d="M14.6041 10.3033C15.3921 10.8663 16.3576 11.1973 17.4001 11.1973V9.1918C17.2026 9.1918 17.0061 9.1713 16.8131 9.1303V10.7088C15.7706 10.7088 14.8056 10.3773 14.0171 9.8148V13.9068C14.0171 15.9538 12.3566 17.6133 10.3086 17.6133C9.54464 17.6133 8.83414 17.3823 8.24414 16.9863C8.91764 17.6743 9.85664 18.1013 10.8956 18.1013C12.9436 18.1013 14.6041 16.4418 14.6041 14.3948V10.3033ZM15.3286 8.2803C14.9261 7.8408 14.6616 7.2723 14.6041 6.6438V6.3858H14.0476C14.1876 7.1843 14.6656 7.8668 15.3286 8.2803ZM9.53964 15.4158C9.31464 15.1208 9.19314 14.7603 9.19364 14.3893C9.19364 13.4528 9.95314 12.6938 10.8901 12.6938C11.0646 12.6938 11.2381 12.7203 11.4046 12.7733V10.7233C11.2101 10.6968 11.0141 10.6853 10.8176 10.6893V12.2848C10.6511 12.2318 10.4776 12.2053 10.3026 12.2053C9.36564 12.2053 8.60614 12.9643 8.60614 13.9008C8.60664 14.5633 8.98614 15.1368 9.53964 15.4158Z" fill="#EC407A"/>
<path fill-rule="evenodd" clip-rule="evenodd" d="M14.0171 9.8148C14.8051 10.3778 15.7706 10.7088 16.8131 10.7088V9.1303C16.2311 9.0063 15.7161 8.7023 15.3286 8.2798C14.6656 7.8663 14.1881 7.1843 14.0481 6.3858H12.5866V14.3948C12.5831 15.3283 11.8251 16.0843 10.8901 16.0843C10.3391 16.0843 9.84961 15.8218 9.53961 15.4153C8.98611 15.1363 8.60661 14.5628 8.60661 13.9008C8.60661 12.9643 9.36611 12.2053 10.3031 12.2053C10.4826 12.2053 10.6556 12.2333 10.8181 12.2848V10.6898C8.80611 10.7313 7.18811 12.3743 7.18811 14.3953C7.18811 15.4043 7.59111 16.3188 8.24511 16.9868C8.83511 17.3828 9.54561 17.6138 10.3096 17.6138C12.3576 17.6138 14.0181 15.9543 14.0181 13.9073L14.0171 9.8148Z" fill="white"/>
<path fill-rule="evenodd" clip-rule="evenodd" d="M16.813 9.13111V8.70412C16.288 8.70512 15.774 8.55811 15.3285 8.28011C15.7225 8.71161 16.2415 9.00911 16.813 9.13111ZM14.0475 6.38611C14.034 6.30961 14.024 6.23311 14.017 6.15561V5.89761H11.999V13.9071C11.996 14.8406 11.2375 15.5966 10.3025 15.5966C10.028 15.5966 9.76898 15.5316 9.53948 15.4156C9.84948 15.8221 10.339 16.0846 10.89 16.0846C11.825 16.0846 12.583 15.3286 12.5865 14.3951V6.38611H14.0475ZM10.8175 10.6901V10.2356C10.649 10.2126 10.479 10.2011 10.3085 10.2011C8.25998 10.2011 6.59998 11.8606 6.59998 13.9076C6.59998 15.1911 7.25248 16.3221 8.24398 16.9871C7.58998 16.3191 7.18698 15.4046 7.18698 14.3956C7.18698 12.3746 8.80548 10.7316 10.8175 10.6901Z" fill="#81D4FA"/>
</svg>
