<svg width="24" height="24" viewBox="0 0 24 24" fill="none" xmlns="http://www.w3.org/2000/svg">
<path d="M12.0004 3.04996C10.8129 3.04996 7.19894 3.04996 5.20094 4.87426C4.01114 6.05956 3.45044 7.77226 3.45044 10.25V11.6C3.45044 14.0777 4.01114 15.7904 5.21489 16.9892C5.81429 17.5359 6.63149 17.9729 7.63049 18.2748L7.95044 18.3711V20.7687C7.95044 21.05 8.03189 21.05 8.05889 21.05C8.11424 21.05 8.20289 21.0324 8.37119 20.883C8.41169 20.843 8.70869 20.5217 10.1532 18.9035L10.299 18.7401L10.5172 18.7541C11.001 18.7842 11.5 18.8 12.0004 18.8C13.188 18.8 16.8019 18.8 18.7999 16.9752C19.9893 15.7899 20.5504 14.0772 20.5504 11.6V10.25C20.5504 7.77226 19.9897 6.05956 18.786 4.86076C16.8019 3.04996 13.188 3.04996 12.0004 3.04996Z" fill="white"/>
<path d="M16.2536 13.7843C15.7536 13.3631 15.5228 13.2358 14.8325 12.8213C14.5449 12.649 14.1066 12.5 13.8767 12.5C13.7196 12.5 13.5315 12.6202 13.4163 12.7354C13.1211 13.0306 13.0244 13.4 12.5069 13.4C12.0006 13.4 11.1164 12.8848 10.4819 12.2188C9.8159 11.5843 9.30065 10.7 9.30065 10.1938C9.30065 9.67628 9.66335 9.57278 9.95855 9.27713C10.0737 9.16238 10.2006 8.97428 10.2006 8.81723C10.2006 8.58728 10.0517 8.15573 9.87935 7.86818C9.4649 7.17743 9.338 6.94658 8.91635 6.44708C8.7737 6.27788 8.61125 6.20048 8.44115 6.20003C8.1536 6.19958 7.77604 6.34223 7.52044 6.53258C7.13614 6.81923 6.73429 7.20938 6.62674 7.69538C6.61234 7.76153 6.60379 7.82813 6.60109 7.89473C6.58039 8.40098 6.77929 8.91488 6.99394 9.35003C7.49929 10.3756 8.168 11.3683 8.89565 12.2548C9.1283 12.5383 9.38165 12.802 9.644 13.0567C9.8987 13.3186 10.1624 13.5719 10.4459 13.805C11.3324 14.5327 12.3251 15.2014 13.3506 15.7067C13.7817 15.9191 14.2893 16.1144 14.7906 16.1C14.8622 16.0978 14.9337 16.0897 15.0053 16.0739C15.4913 15.9668 15.8814 15.5645 16.1681 15.1802C16.3584 14.9246 16.5011 14.5475 16.5006 14.2595C16.5002 14.0894 16.4228 13.927 16.2536 13.7843ZM16.5006 11.6C16.2522 11.6 16.0506 11.3984 16.0506 11.15V10.7C16.0506 8.46713 14.2335 6.65003 12.0006 6.65003C11.7522 6.65003 11.5506 6.44843 11.5506 6.20003C11.5506 5.95163 11.7522 5.75003 12.0006 5.75003C14.7299 5.75003 16.9506 7.97078 16.9506 10.7V11.15C16.9506 11.3984 16.749 11.6 16.5006 11.6ZM13.7367 10.7C13.5369 10.7 13.3542 10.5659 13.3016 10.3634C13.1783 9.89048 12.8093 9.52103 12.3381 9.39953C12.0974 9.33698 11.9529 9.09173 12.015 8.85098C12.0771 8.61068 12.3219 8.46623 12.5636 8.52788C13.3502 8.73173 13.9667 9.34778 14.1723 10.1362C14.2349 10.3769 14.0909 10.6222 13.8506 10.6852C13.8123 10.6951 13.7741 10.7 13.7367 10.7Z" fill="#7E57C2"/>
<path d="M15.1502 11.1509C14.9018 11.1509 14.7002 10.9493 14.7002 10.7009C14.7002 9.26634 13.5779 8.08283 12.1451 8.00723C11.8967 7.99418 11.7063 7.78223 11.7194 7.53428C11.7324 7.28588 11.948 7.09508 12.1923 7.10858C14.1035 7.20938 15.6002 8.78754 15.6002 10.7009C15.6002 10.9493 15.3986 11.1509 15.1502 11.1509Z" fill="#7E57C2"/>
<path d="M12.0002 2.60004C9.97522 2.60004 6.81982 2.78634 4.89742 4.54224C3.53842 5.89539 3.00023 7.79349 3.00023 10.25C3.00023 10.4534 2.99932 10.6802 3.00112 10.925C2.99932 11.1694 3.00023 11.3962 3.00023 11.5996C3.00023 14.0561 3.53842 15.9542 4.89742 17.3074C5.62912 17.9756 6.54172 18.4153 7.50022 18.7051V20.7688C7.50022 21.487 7.97227 21.5 8.05867 21.5H8.06272C8.28502 21.4991 8.47718 21.3902 8.66978 21.2192C8.74223 21.1549 9.57877 20.2225 10.4887 19.2028C11.0305 19.2374 11.5453 19.25 11.9998 19.25C14.0248 19.25 17.1797 19.0633 19.1026 17.3074C20.4611 15.9547 20.9998 14.0561 20.9998 11.5996C20.9998 11.3962 21.0007 11.1694 20.9989 10.9246C21.0007 10.6798 20.9998 10.4534 20.9998 10.2496C20.9998 7.79304 20.4616 5.89494 19.1026 4.54179C17.1802 2.78634 14.0252 2.60004 12.0002 2.60004ZM19.6502 11.443V11.5996C19.6502 13.8073 19.18 15.3116 18.1715 16.33C16.4246 17.9 13.0969 17.9 11.9998 17.9C11.6659 17.9 11.1241 17.8996 10.4846 17.855C10.3069 18.0548 8.40022 20.1874 8.40022 20.1874V17.549C7.45342 17.3218 6.51788 16.9492 5.82893 16.3304C4.82048 15.3116 4.35022 13.8073 4.35022 11.5996V11.443C4.35022 11.285 4.34977 11.1145 4.35112 10.9151C4.34977 10.7351 4.34977 10.565 4.35022 10.4066V10.25C4.35022 8.04234 4.82048 6.53799 5.82893 5.51964C7.57538 3.94959 10.9036 3.94959 12.0002 3.94959C13.0969 3.94959 16.4246 3.94959 18.1711 5.51964C19.18 6.53799 19.6498 8.04234 19.6498 10.25V10.4066C19.6498 10.5646 19.6502 10.7351 19.6489 10.9345C19.6502 11.1149 19.6502 11.285 19.6502 11.443Z" fill="#7E57C2"/>
</svg>
