<svg width="24" height="24" viewBox="0 0 24 24" fill="none" xmlns="http://www.w3.org/2000/svg">
<path fill-rule="evenodd" clip-rule="evenodd" d="M21 5.83403C21 5.05145 20.6828 4.34289 20.1699 3.83004C19.6571 3.31719 18.9485 2.99997 18.1659 2.99997H5.83407C5.05148 2.99997 4.34294 3.31719 3.83009 3.83006C3.31722 4.34291 3 5.05145 3 5.83404V18.1659C3 18.9485 3.31721 19.6571 3.83006 20.1699C4.34291 20.6828 5.05146 21 5.83406 21H18.1659C18.9485 21 19.6571 20.6828 20.1699 20.1699C20.6828 19.6571 21 18.9485 21 18.1659V5.83404L21 5.83403Z" fill="#2DC100"/>
<path fill-rule="evenodd" clip-rule="evenodd" d="M14.0329 8.48679C13.4492 7.71819 12.6183 7.17316 11.6939 6.90002C10.7746 6.62835 9.76218 6.62568 8.8088 6.93973C8.08701 7.17753 7.46234 7.52938 6.9677 8.01622C6.50233 8.47428 6.15372 9.04992 5.94946 9.76017C5.72109 10.5545 5.75867 11.338 6.03372 12.0529C6.3098 12.7704 6.82428 13.4164 7.54807 13.9317C7.62748 13.9884 7.67145 14.0354 7.68669 14.0827C7.70196 14.13 7.69333 14.1939 7.66702 14.2821C7.59959 14.5081 7.55209 14.7421 7.50093 14.9939C7.47804 15.1066 7.45441 15.223 7.42994 15.3346L7.34983 15.7L7.66406 15.5019C7.81025 15.4097 7.92763 15.3345 8.04129 15.2617C8.34805 15.0653 8.63086 14.8841 8.90504 14.7281C8.94425 14.7058 8.99418 14.6907 9.04817 14.6815C9.1146 14.6701 9.18551 14.6687 9.25078 14.6742C9.55221 14.6998 9.84043 14.7378 10.1426 14.7777C10.3 14.7984 10.46 14.8195 10.5253 14.8277L10.7158 14.8515L10.6996 14.6586C10.65 14.0677 10.7155 13.5353 10.8923 13.0546C11.069 12.5742 11.3574 12.1433 11.7536 11.7557C12.1469 11.3709 12.5862 11.0932 13.0665 10.9043C13.5496 10.7143 14.075 10.6137 14.6381 10.5841L14.8001 10.5755L14.785 10.4131C14.7506 10.0421 14.6684 9.69984 14.5418 9.3806C14.4151 9.06123 14.2443 8.76521 14.0329 8.48681V8.48679ZM12.0833 9.25554C12.2691 9.25401 12.4373 9.32648 12.5599 9.44586C12.6831 9.56585 12.7604 9.73302 12.7638 9.9201V9.92072L12.7639 9.92607V9.92669C12.7657 10.1183 12.6937 10.289 12.5732 10.4128C12.453 10.5364 12.285 10.6123 12.0947 10.6146C11.9054 10.6169 11.7341 10.5446 11.6091 10.4247C11.4833 10.3041 11.4044 10.1355 11.4011 9.94608C11.3977 9.76192 11.4744 9.59016 11.5983 9.46423C11.7209 9.3396 11.8912 9.25907 12.0766 9.25562H12.0772L12.0826 9.25555H12.0833V9.25554ZM9.26212 9.47186C9.38298 9.59867 9.45694 9.76987 9.45167 9.95161V9.95222L9.45152 9.95659V9.9572C9.44448 10.144 9.36153 10.3107 9.233 10.4292C9.10554 10.5467 8.93322 10.617 8.74619 10.6122H8.74557L8.74322 10.6121C8.5544 10.6065 8.38793 10.5276 8.26963 10.4026C8.1512 10.2775 8.0815 10.1066 8.08628 9.91728L8.08634 9.91497V9.91435C8.09189 9.72527 8.17275 9.55757 8.29963 9.4387C8.426 9.32029 8.59792 9.25024 8.78621 9.25582H8.78684L8.79154 9.25598H8.79215C8.97503 9.26309 9.14235 9.34622 9.26212 9.47186V9.47186Z" fill="#FFFFFE"/>
<path fill-rule="evenodd" clip-rule="evenodd" d="M17.6462 12.3515C17.087 11.6305 16.2229 11.1829 15.2985 11.0453C14.372 10.9074 13.3877 11.0811 12.5909 11.6031C12.3269 11.776 12.098 11.9697 11.905 12.1784C11.4357 12.6857 11.1682 13.2878 11.1114 13.9047C11.0547 14.5204 11.2083 15.1526 11.581 15.7215C11.7295 15.948 11.9113 16.1636 12.1271 16.3631C12.5308 16.7364 12.977 17.0001 13.4587 17.1572C13.9483 17.3169 14.4755 17.3667 15.0325 17.3097C15.1728 17.2954 15.3229 17.2523 15.472 17.2095C15.7067 17.1421 15.939 17.0754 16.1815 17.1007C16.4619 17.13 16.7145 17.263 16.9741 17.3999C16.8835 17.195 16.8705 17.0168 16.923 16.8453C16.9814 16.655 17.1196 16.4879 17.321 16.3092C17.9091 15.7875 18.2329 15.1158 18.2906 14.4192C18.349 13.7137 18.1348 12.9813 17.6462 12.3515L17.6462 12.3515ZM15.331 12.7592C15.4378 12.6564 15.5825 12.5931 15.7395 12.5942H15.7401L15.7568 12.5945H15.7574C15.9172 12.6004 16.0596 12.6698 16.1615 12.7782C16.2628 12.8858 16.3242 13.0321 16.3231 13.1925L16.3228 13.2112C16.317 13.3717 16.25 13.5132 16.1441 13.6146C16.038 13.7161 15.8937 13.7772 15.7332 13.7766C15.7234 13.7766 15.7158 13.7765 15.7105 13.7763C15.5522 13.7699 15.4113 13.7017 15.3103 13.595C15.2095 13.4887 15.1482 13.3443 15.1486 13.1855C15.1486 13.1756 15.1487 13.1678 15.149 13.1623C15.1553 13.0044 15.2245 12.8618 15.331 12.7592V12.7592ZM13.0424 12.5936C13.2027 12.5997 13.3463 12.669 13.4494 12.7765C13.5526 12.8841 13.6158 13.0302 13.6153 13.19V13.1906C13.6153 13.1996 13.6152 13.2065 13.615 13.2112C13.6087 13.3705 13.5396 13.5129 13.4319 13.6152C13.3246 13.7172 13.1787 13.7797 13.0187 13.7796C12.8592 13.7794 12.7132 13.7156 12.6059 13.6126C12.4985 13.5096 12.4294 13.3665 12.4237 13.2077C12.4235 13.2017 12.4234 13.194 12.4234 13.1849C12.4242 13.0272 12.4894 12.8818 12.5936 12.7751C12.6978 12.6683 12.8416 12.5991 12.9994 12.5935C13.0054 12.5933 13.0132 12.5932 13.0224 12.5932L13.0424 12.5936V12.5936Z" fill="#FFFFFE"/>
</svg>
