<svg width="24" height="24" viewBox="0 0 24 24" fill="none" xmlns="http://www.w3.org/2000/svg">
<path d="M3.44861 20.5526L4.65688 16.1603C3.91146 14.8749 3.51947 13.4163 3.51992 11.9224C3.52216 7.24869 7.34163 3.44629 12.0357 3.44629C14.3136 3.44718 16.4512 4.33012 18.0591 5.9321C19.6665 7.53452 20.5519 9.66394 20.551 11.9291C20.5492 16.6028 16.7288 20.4057 12.0357 20.4057C12.0352 20.4057 12.0357 20.4057 12.0357 20.4057H12.0321C10.6072 20.4053 9.20651 20.0493 7.9628 19.3736L3.44861 20.5526Z" fill="white"/>
<path d="M3.44867 20.7765C3.38946 20.7765 3.33205 20.7532 3.28945 20.7104C3.23338 20.6536 3.21141 20.571 3.23249 20.4947L4.41609 16.1912C3.68234 14.8933 3.29528 13.4195 3.29617 11.9234C3.29797 7.12595 7.21834 3.22351 12.0357 3.22351C14.3724 3.2244 16.5679 4.13057 18.2179 5.77497C19.868 7.41982 20.7762 9.60551 20.7753 11.9296C20.7735 16.7266 16.8527 20.6295 12.0357 20.6295C10.6054 20.6291 9.19042 20.2776 7.9346 19.6126L3.50563 20.7689C3.48679 20.7742 3.46795 20.7765 3.44867 20.7765Z" fill="white"/>
<path d="M12.0357 3.44661C14.3137 3.4475 16.4513 4.33044 18.0592 5.93241C19.6666 7.53483 20.5519 9.66425 20.551 11.9294C20.5493 16.6032 16.7289 20.406 12.0357 20.406H12.0322C10.6073 20.4056 9.20658 20.0496 7.96288 19.3739L3.44869 20.5529L4.65696 16.1606C3.91154 14.8752 3.51955 13.4166 3.52 11.9227C3.52224 7.24901 7.3417 3.44661 12.0357 3.44661ZM12.0357 3C7.09503 3 3.07374 7.00248 3.0715 11.9227C3.07105 13.4265 3.45228 14.9083 4.17527 16.22L3.01588 20.4355C2.97372 20.5896 3.01678 20.7539 3.1298 20.8674C3.21502 20.9531 3.33028 21 3.44869 21C3.48681 21 3.52493 20.9951 3.56261 20.9853L7.90727 19.8509C9.17564 20.5065 10.5974 20.8526 12.0322 20.8531C16.9765 20.8531 20.9978 16.8501 21 11.9299C21.0009 9.54545 20.0694 7.30349 18.3771 5.61711C16.684 3.93028 14.4321 3.00089 12.0357 3Z" fill="#CFD8DC"/>
<path d="M17.0419 6.94454C15.7054 5.61276 13.9288 4.87899 12.0379 4.87854C8.13415 4.87854 4.95919 8.03872 4.9574 11.9233C4.95695 13.2546 5.331 14.5507 6.03964 15.673L6.20828 15.9396L5.49291 18.5393L8.17183 17.8399L8.43061 17.9927C9.51689 18.6349 10.7628 18.9743 12.033 18.9748H12.0357C15.9368 18.9748 19.1117 15.8141 19.1131 11.9291C19.1135 10.0467 18.3784 8.27632 17.0419 6.94454Z" fill="#40C351"/>
<path fill-rule="evenodd" clip-rule="evenodd" d="M9.90715 8.3795C9.74793 8.02668 9.58019 8.01954 9.42814 8.01328C9.30391 8.00792 9.16218 8.00837 9.02045 8.00837C8.87873 8.00837 8.64819 8.06152 8.45309 8.27365C8.258 8.48579 7.70813 8.99805 7.70813 10.0404C7.70813 11.0828 8.47059 12.0903 8.57688 12.2315C8.68318 12.3726 10.0489 14.5802 12.2116 15.4296C14.0087 16.1353 14.3747 15.995 14.7649 15.9597C15.1551 15.9245 16.0238 15.4475 16.201 14.9526C16.3782 14.4578 16.3782 14.034 16.3252 13.9455C16.2719 13.8571 16.1301 13.8044 15.9175 13.6981C15.705 13.5918 14.6586 13.0796 14.4635 13.009C14.2684 12.9384 14.1267 12.9032 13.9845 13.1153C13.8428 13.327 13.4351 13.8044 13.3108 13.9455C13.1866 14.0871 13.0624 14.105 12.8498 13.9987C12.6372 13.8924 11.9519 13.6691 11.1387 12.9474C10.5063 12.386 10.0794 11.6924 9.95514 11.4803C9.8309 11.2686 9.94168 11.1538 10.0484 11.048C10.144 10.9528 10.261 10.8005 10.3678 10.6768C10.4741 10.5531 10.5095 10.4647 10.5804 10.3236C10.6512 10.182 10.6158 10.0583 10.5624 9.95244C10.5099 9.84615 10.0964 8.79842 9.90715 8.3795Z" fill="white"/>
</svg>
