<svg width="24" height="24" viewBox="0 0 24 24" fill="none" xmlns="http://www.w3.org/2000/svg">
<path d="M20.6085 7.0816C20.3895 6.26766 19.7478 5.62607 18.934 5.4069C17.4471 5 11.4998 5 11.4998 5C11.4998 5 5.55263 5 4.06579 5.39139C3.26766 5.61042 2.61027 6.2678 2.39124 7.0816C2 8.56828 2 11.6515 2 11.6515C2 11.6515 2 14.7503 2.39124 16.2215C2.61042 17.0353 3.252 17.677 4.06594 17.8962C5.56828 18.3031 11.5 18.3031 11.5 18.3031C11.5 18.3031 17.4471 18.3031 18.934 17.9117C19.7479 17.6927 20.3895 17.0509 20.6087 16.2371C20.9999 14.7503 20.9999 11.6672 20.9999 11.6672C20.9999 11.6672 21.0156 8.56828 20.6085 7.0816Z" fill="#FF0000"/>
<path d="M9.6062 14.5001L14.5518 11.6516L9.6062 8.80319V14.5001Z" fill="white"/>
</svg>
