<svg width="24" height="24" viewBox="0 0 24 24" fill="none" xmlns="http://www.w3.org/2000/svg">
<path d="M18.4534 3H5.54659C4.14014 3 3 4.14014 3 5.54659V18.453C3 19.8599 4.14014 21 5.54659 21H18.453C19.8599 21 21 19.8599 21 18.4534V5.54659C21 4.14014 19.8599 3 18.4534 3Z" fill="url(#paint0_linear_2_1274)"/>
<path d="M14.8636 15.1841C14.8636 15.459 14.6406 15.682 14.3657 15.682H7.02251C6.15647 15.682 5.45447 14.9755 5.45447 14.1041V8.81619C5.45447 8.54128 5.67742 8.31833 5.95233 8.31833H13.2955C14.1616 8.31833 14.8636 9.02483 14.8636 9.89619V15.1841Z" fill="white"/>
<path d="M18.3781 15.3112L15.8536 13.6883C15.7464 13.6196 15.6818 13.501 15.6818 13.3738V10.6263C15.6818 10.4991 15.7464 10.3804 15.8536 10.3117L18.3781 8.68885C18.6268 8.52889 18.9545 8.70767 18.9545 9.00344V14.9962C18.9545 15.2924 18.6268 15.4712 18.3781 15.3112Z" fill="white"/>
<defs>
<linearGradient id="paint0_linear_2_1274" x1="12" y1="23.2586" x2="12" y2="5.25859" gradientUnits="userSpaceOnUse">
<stop stop-color="#155CDE"/>
<stop offset="0.278" stop-color="#1F7FE5"/>
<stop offset="0.569" stop-color="#279CEB"/>
<stop offset="0.82" stop-color="#2CAFEF"/>
<stop offset="1" stop-color="#2EB5F0"/>
</linearGradient>
</defs>
</svg>
