<svg width="24" height="24" viewBox="0 0 24 24" fill="none" xmlns="http://www.w3.org/2000/svg">
<path d="M11.7115 20.4C11.5829 20.3996 11.4581 20.3566 11.3565 20.2777C8.12024 17.7633 5.89097 15.598 4.33107 13.4619C2.34044 10.7321 1.88644 8.21176 2.9807 5.97085C3.76065 4.37021 6.00156 3.06058 8.62081 3.82308C9.86963 4.1838 10.9592 4.95737 11.7115 6.01742C12.4638 4.95737 13.5534 4.1838 14.8022 3.82308C17.4156 3.07223 19.6624 4.37021 20.4423 5.97085C21.5366 8.21176 21.0826 10.7321 19.092 13.4619C17.5321 15.598 15.3028 17.7633 12.0666 20.2777C11.965 20.3566 11.8401 20.3996 11.7115 20.4ZM7.13075 4.77182C6.50752 4.74757 5.88944 4.8935 5.34288 5.19396C4.79631 5.49441 4.34189 5.93805 4.0284 6.47724C3.12622 8.32817 3.53365 10.3886 5.274 12.7692C7.12351 15.1548 9.28925 17.2775 11.7115 19.0787C14.1334 17.2793 16.2991 15.1586 18.149 12.7751C19.8952 10.3886 20.2968 8.32817 19.3946 6.48306C18.8126 5.31895 17.0664 4.39349 15.1224 4.94062C14.499 5.12484 13.9211 5.43753 13.4259 5.85856C12.9307 6.2796 12.5291 6.79965 12.247 7.38525C12.2032 7.492 12.1286 7.58331 12.0327 7.64757C11.9368 7.71183 11.824 7.74614 11.7086 7.74614C11.5932 7.74614 11.4804 7.71183 11.3845 7.64757C11.2887 7.58331 11.2141 7.492 11.1702 7.38525C10.8902 6.79818 10.4893 6.27692 9.99381 5.85562C9.49828 5.43432 8.91932 5.12251 8.29486 4.94062C7.91651 4.83073 7.52473 4.77392 7.13075 4.77182Z" fill="#2F80ED"/>
</svg>
