<svg width="24" height="24" viewBox="0 0 24 24" fill="none" xmlns="http://www.w3.org/2000/svg">
<path d="M21.8517 10.6835L21.8518 10.6835L19.2979 8.99037V3.33124C19.2979 3.14831 19.1496 3 18.9667 3H5.03286C4.84993 3 4.70162 3.14831 4.70162 3.33124V8.99077L2.14822 10.6835L2.14826 10.6836C2.05896 10.7429 2 10.8443 2 10.9595V21.2175C2 21.4004 2.14831 21.5487 2.33124 21.5487H21.6688C21.8517 21.5487 22 21.4004 22 21.2175V10.9595C22 10.8443 21.941 10.7429 21.8517 10.6835ZM4.70162 11.8419L3.66262 11.2908H4.70162V11.8419ZM2.66249 11.5102L10.28 15.5509L2.66249 20.6003V11.5102ZM11.9999 15.2056L20.5697 20.8862H3.43013L11.9999 15.2056ZM13.7199 15.551L21.3375 11.5102V20.6004L13.7199 15.551ZM19.2979 11.2908H20.3374L19.2979 11.8422V11.2908ZM20.5697 10.6283H19.2979V9.78518L20.5697 10.6283ZM18.6355 3.66249V12.1936L13.0915 15.1344L12.1828 14.5321C12.0719 14.4586 11.9277 14.4586 11.8168 14.5321L10.9084 15.1343L5.3641 12.1934V3.66249H18.6355ZM4.70162 10.6283H3.43044L4.70162 9.78562V10.6283Z" fill="#2F80ED" stroke="#2F80ED" stroke-width="0.24"/>
<path d="M11.9997 11.7112H14.6388C14.8218 11.7112 14.9701 11.5628 14.9701 11.3799C14.9701 11.197 14.8218 11.0487 14.6388 11.0487H11.9997C10.7272 11.0487 9.69191 10.0134 9.69191 8.74083V8.64309C9.69191 7.37055 10.7272 6.33526 11.9997 6.33526C13.2723 6.33526 14.3076 7.37055 14.3076 8.64309V8.88746C14.3076 9.16292 14.0835 9.38707 13.808 9.38707C13.5325 9.38707 13.3084 9.16297 13.3084 8.88746V8.42319C13.3084 7.63422 12.6665 6.99231 11.8775 6.99231C11.0886 6.99231 10.4467 7.63417 10.4467 8.42319C10.4467 9.21217 11.0886 9.85403 11.8775 9.85403C12.2383 9.85403 12.5681 9.71954 12.82 9.49841C13.0251 9.8289 13.3912 10.0495 13.808 10.0495C14.4487 10.0495 14.9701 9.52822 14.9701 8.88742V8.64305C14.9701 7.00521 13.6376 5.67273 11.9997 5.67273C10.3619 5.67273 9.02942 7.00521 9.02942 8.64305V8.74079C9.02942 10.3787 10.3619 11.7112 11.9997 11.7112ZM11.8775 9.19154C11.4539 9.19154 11.1092 8.84687 11.1092 8.42319C11.1092 7.99951 11.4539 7.6548 11.8775 7.6548C12.3012 7.6548 12.6459 7.99951 12.6459 8.42319C12.6459 8.84687 12.3012 9.19154 11.8775 9.19154Z" fill="#2F80ED" stroke="#2F80ED" stroke-width="0.24"/>
</svg>
