<svg width="43" height="15" viewBox="0 0 43 15" fill="none" xmlns="http://www.w3.org/2000/svg">
<path d="M6.986 9.264H3.318L2.73 11H0.224L3.78 1.172H6.552L10.108 11H7.574L6.986 9.264ZM6.37 7.416L5.152 3.818L3.948 7.416H6.37ZM13.5843 4.294C13.8176 3.93 14.1396 3.636 14.5503 3.412C14.9609 3.188 15.4416 3.076 15.9923 3.076C16.6363 3.076 17.2196 3.23933 17.7423 3.566C18.2649 3.89267 18.6756 4.35933 18.9743 4.966C19.2823 5.57267 19.4363 6.27733 19.4363 7.08C19.4363 7.88267 19.2823 8.592 18.9743 9.208C18.6756 9.81467 18.2649 10.286 17.7423 10.622C17.2196 10.9487 16.6363 11.112 15.9923 11.112C15.4509 11.112 14.9703 11 14.5503 10.776C14.1396 10.552 13.8176 10.2627 13.5843 9.908V14.724H11.1903V3.188H13.5843V4.294ZM17.0003 7.08C17.0003 6.48267 16.8323 6.016 16.4963 5.68C16.1696 5.33467 15.7636 5.162 15.2783 5.162C14.8023 5.162 14.3963 5.33467 14.0603 5.68C13.7336 6.02533 13.5703 6.49667 13.5703 7.094C13.5703 7.69133 13.7336 8.16267 14.0603 8.508C14.3963 8.85333 14.8023 9.026 15.2783 9.026C15.7543 9.026 16.1603 8.85333 16.4963 8.508C16.8323 8.15333 17.0003 7.67733 17.0003 7.08ZM23.0862 4.294C23.3196 3.93 23.6416 3.636 24.0522 3.412C24.4629 3.188 24.9436 3.076 25.4942 3.076C26.1382 3.076 26.7216 3.23933 27.2442 3.566C27.7669 3.89267 28.1776 4.35933 28.4762 4.966C28.7842 5.57267 28.9382 6.27733 28.9382 7.08C28.9382 7.88267 28.7842 8.592 28.4762 9.208C28.1776 9.81467 27.7669 10.286 27.2442 10.622C26.7216 10.9487 26.1382 11.112 25.4942 11.112C24.9529 11.112 24.4722 11 24.0522 10.776C23.6416 10.552 23.3196 10.2627 23.0862 9.908V14.724H20.6922V3.188H23.0862V4.294ZM26.5022 7.08C26.5022 6.48267 26.3342 6.016 25.9982 5.68C25.6716 5.33467 25.2656 5.162 24.7802 5.162C24.3042 5.162 23.8982 5.33467 23.5622 5.68C23.2356 6.02533 23.0722 6.49667 23.0722 7.094C23.0722 7.69133 23.2356 8.16267 23.5622 8.508C23.8982 8.85333 24.3042 9.026 24.7802 9.026C25.2562 9.026 25.6622 8.85333 25.9982 8.508C26.3342 8.15333 26.5022 7.67733 26.5022 7.08ZM32.5882 0.64V11H30.1942V0.64H32.5882ZM42.3031 3.188L37.4031 14.71H34.8271L36.6191 10.734L33.4411 3.188H36.1151L37.9211 8.074L39.7131 3.188H42.3031Z" fill="#C4D3EB"/>
</svg>
