<svg display="none" xmlns="http://www.w3.org/2000/svg">
    <symbol id="applePay" viewBox="0 0 50 20">
        <g clip-path="url(#clip0_2_633)">
            <path d="M9.79891 2.57865C9.2329 3.25305 8.3312 3.78745 7.43101 3.70917C7.31208 2.79994 7.76068 1.82598 8.27851 1.22234C8.84302 0.534398 9.83052 0.0406443 10.6314 0C10.7262 0.949872 10.3559 1.88319 9.80042 2.57865H9.79891ZM10.6223 3.8883C9.31419 3.80852 8.1912 4.63947 7.571 4.63947C6.93725 4.63947 5.98738 3.92744 4.95321 3.95153C3.61195 3.96809 2.358 4.73431 1.67608 5.96718C0.256537 8.41939 1.30727 12.0503 2.67111 14.0494C3.33798 15.0369 4.13581 16.1192 5.18804 16.0891C6.18308 16.0485 6.5835 15.4313 7.78326 15.4313C8.99807 15.4313 9.34279 16.0891 10.4026 16.065C11.4909 16.0485 12.1804 15.0775 12.8472 14.09C13.6074 12.9685 13.9205 11.8696 13.9371 11.8154C13.9205 11.7914 11.8281 10.9845 11.8131 8.55336C11.7965 6.51362 13.4584 5.54268 13.5292 5.48698C12.5958 4.07647 11.1221 3.92744 10.6208 3.88981L10.6223 3.8883ZM18.1731 1.1275V15.9627H20.4537V10.8912H23.6074C26.4841 10.8912 28.5073 8.89207 28.5073 6.00632C28.5073 3.11456 26.5248 1.12901 23.6857 1.12901L18.1731 1.1275ZM20.4537 3.07241H23.0806C25.0556 3.07241 26.1861 4.13819 26.1861 6.01234C26.1861 7.8865 25.0556 8.96131 23.0655 8.96131H20.4537V3.07241ZM32.6606 16.0726C34.0952 16.0726 35.4199 15.344 36.025 14.1818H36.0732V15.9627H38.1807V8.57594C38.1807 6.44438 36.4887 5.05796 33.8769 5.05796C31.4623 5.05796 29.674 6.46094 29.6122 8.38176H31.658C31.8311 7.465 32.6621 6.86888 33.8152 6.86888C35.2106 6.86888 35.9874 7.52672 35.9874 8.73551V9.5499L33.1498 9.72302C30.4989 9.8871 29.0718 10.977 29.0718 12.8827C29.0718 14.8036 30.5471 16.0741 32.6621 16.0741L32.6606 16.0726ZM33.2808 14.3158C32.0645 14.3158 31.2892 13.7272 31.2892 12.827C31.2892 11.8937 32.0343 11.3443 33.4524 11.257L35.9859 11.1004V11.9389C35.9859 13.3283 34.8177 14.3158 33.2717 14.3158H33.2808ZM40.9957 20C43.213 20 44.2577 19.1374 45.167 16.5422L49.1652 5.20548H46.8529L44.1719 13.9621H44.1238L41.4427 5.20548H39.0598L42.918 16.0018L42.7133 16.6596C42.3595 17.7661 41.7965 18.1951 40.7924 18.1951C40.6118 18.1951 40.2671 18.1725 40.1256 18.1575V19.9383C40.258 19.9759 40.824 19.9925 40.9881 19.9925L40.9957 20Z" fill="white"/>
        </g>
    </symbol>

    <symbol id="promoApply" viewBox="0 0 43 15">
        <g>
            <path d="M6.986 9.264H3.318L2.73 11H0.224L3.78 1.172H6.552L10.108 11H7.574L6.986 9.264ZM6.37 7.416L5.152 3.818L3.948 7.416H6.37ZM13.5843 4.294C13.8176 3.93 14.1396 3.636 14.5503 3.412C14.9609 3.188 15.4416 3.076 15.9923 3.076C16.6363 3.076 17.2196 3.23933 17.7423 3.566C18.2649 3.89267 18.6756 4.35933 18.9743 4.966C19.2823 5.57267 19.4363 6.27733 19.4363 7.08C19.4363 7.88267 19.2823 8.592 18.9743 9.208C18.6756 9.81467 18.2649 10.286 17.7423 10.622C17.2196 10.9487 16.6363 11.112 15.9923 11.112C15.4509 11.112 14.9703 11 14.5503 10.776C14.1396 10.552 13.8176 10.2627 13.5843 9.908V14.724H11.1903V3.188H13.5843V4.294ZM17.0003 7.08C17.0003 6.48267 16.8323 6.016 16.4963 5.68C16.1696 5.33467 15.7636 5.162 15.2783 5.162C14.8023 5.162 14.3963 5.33467 14.0603 5.68C13.7336 6.02533 13.5703 6.49667 13.5703 7.094C13.5703 7.69133 13.7336 8.16267 14.0603 8.508C14.3963 8.85333 14.8023 9.026 15.2783 9.026C15.7543 9.026 16.1603 8.85333 16.4963 8.508C16.8323 8.15333 17.0003 7.67733 17.0003 7.08ZM23.0862 4.294C23.3196 3.93 23.6416 3.636 24.0522 3.412C24.4629 3.188 24.9436 3.076 25.4942 3.076C26.1382 3.076 26.7216 3.23933 27.2442 3.566C27.7669 3.89267 28.1776 4.35933 28.4762 4.966C28.7842 5.57267 28.9382 6.27733 28.9382 7.08C28.9382 7.88267 28.7842 8.592 28.4762 9.208C28.1776 9.81467 27.7669 10.286 27.2442 10.622C26.7216 10.9487 26.1382 11.112 25.4942 11.112C24.9529 11.112 24.4722 11 24.0522 10.776C23.6416 10.552 23.3196 10.2627 23.0862 9.908V14.724H20.6922V3.188H23.0862V4.294ZM26.5022 7.08C26.5022 6.48267 26.3342 6.016 25.9982 5.68C25.6716 5.33467 25.2656 5.162 24.7802 5.162C24.3042 5.162 23.8982 5.33467 23.5622 5.68C23.2356 6.02533 23.0722 6.49667 23.0722 7.094C23.0722 7.69133 23.2356 8.16267 23.5622 8.508C23.8982 8.85333 24.3042 9.026 24.7802 9.026C25.2562 9.026 25.6622 8.85333 25.9982 8.508C26.3342 8.15333 26.5022 7.67733 26.5022 7.08ZM32.5882 0.64V11H30.1942V0.64H32.5882ZM42.3031 3.188L37.4031 14.71H34.8271L36.6191 10.734L33.4411 3.188H36.1151L37.9211 8.074L39.7131 3.188H42.3031Z"/>
        </g>
    </symbol>

    <symbol id="visa" viewBox="0 0 21 16" fill="#1239B4">
        <g>
            <path d="M15.2658 5.60113C14.7777 5.42048 14.2619 5.32982 13.7424 5.33344C12.0627 5.33344 10.8764 6.19305 10.868 7.42699C10.8575 8.33352 11.711 8.84438 12.3566 9.14727C13.0191 9.45869 13.2406 9.65493 13.2385 9.93328C13.2343 10.3567 12.7094 10.5487 12.2212 10.5487C11.5504 10.5487 11.184 10.4537 10.6202 10.2159L10.4113 10.1167L10.173 11.5373C10.5814 11.7101 11.3173 11.8583 12.0774 11.8711C13.8632 11.8711 15.0306 11.0169 15.0442 9.70399C15.0589 8.97983 14.597 8.43271 13.6249 7.98051C13.0338 7.68722 12.6674 7.49098 12.6674 7.19343C12.6674 6.93 12.9813 6.64844 13.6375 6.64844C14.0741 6.63771 14.5081 6.72094 14.9109 6.89267L15.0684 6.96413L15.3067 5.59154L15.2658 5.60113ZM19.6247 5.44862H18.3124C17.904 5.44862 17.5964 5.56274 17.4179 5.97441L14.8941 11.7826H16.6799L17.0368 10.8302L19.2163 10.8323C19.2678 11.0552 19.4252 11.7826 19.4252 11.7826H21L19.6247 5.44862ZM8.45228 5.3953H10.1541L9.08954 11.7325H7.38984L8.45228 5.39317V5.3953ZM4.13218 8.88811L4.30855 9.76798L5.9715 5.44862H7.77408L5.09594 11.7741H3.29755L1.82778 6.41808C1.80397 6.32976 1.74807 6.25391 1.67135 6.20584C1.1416 5.92785 0.580296 5.71688 0 5.57767L0.0230965 5.44436H2.76214C3.13378 5.45929 3.43298 5.57767 3.53272 5.98081L4.13113 8.89131V8.88811H4.13218ZM17.525 9.53441L18.2032 7.76188C18.1948 7.78107 18.3428 7.39606 18.4289 7.15823L18.5455 7.70535L18.9392 9.53334H17.524V9.53441H17.525Z"/>
        </g>
    </symbol>

    <symbol id="mastercard" viewBox="0 0 21 16">
        <g>
            <path d="M4.23497 15.9205V14.8615C4.23497 14.4555 3.99857 14.1908 3.59336 14.1908C3.3908 14.1908 3.17132 14.2614 3.01936 14.4908C2.90124 14.2967 2.73243 14.1908 2.47919 14.1908C2.31031 14.1908 2.14159 14.2437 2.00647 14.4379V14.2261H1.65195V15.9205H2.00647V14.985C2.00647 14.685 2.15843 14.5438 2.39483 14.5438C2.63108 14.5438 2.74935 14.7026 2.74935 14.985V15.9205H3.10388V14.985C3.10388 14.685 3.2726 14.5438 3.49208 14.5438C3.72848 14.5438 3.84661 14.7026 3.84661 14.985V15.9205H4.23497ZM9.48521 14.2261H8.91128V13.7142H8.55676V14.2261H8.236V14.5614H8.55668V15.338C8.55668 15.7264 8.70864 15.9558 9.11384 15.9558C9.26581 15.9558 9.43453 15.9029 9.55281 15.8323L9.45145 15.5145C9.35017 15.5851 9.23204 15.6028 9.1476 15.6028C8.9788 15.6028 8.91128 15.4969 8.91128 15.3204V14.5614H9.48521V14.2261ZM12.4903 14.1907C12.2877 14.1907 12.1527 14.2967 12.0682 14.4379V14.2261H11.7137V15.9205H12.0682V14.9674C12.0682 14.685 12.1864 14.5261 12.4058 14.5261C12.4734 14.5261 12.5578 14.5438 12.6253 14.5614L12.7266 14.2085C12.6591 14.1908 12.5578 14.1908 12.4903 14.1908V14.1907ZM7.949 14.3673C7.78012 14.2437 7.54379 14.1908 7.29055 14.1908C6.88543 14.1908 6.61534 14.4026 6.61534 14.7379C6.61534 15.0204 6.81791 15.1792 7.17243 15.2322L7.34123 15.2498C7.52695 15.2851 7.62823 15.338 7.62823 15.4263C7.62823 15.5498 7.49319 15.6381 7.25679 15.6381C7.02047 15.6381 6.83475 15.5498 6.71655 15.4616L6.54775 15.744C6.73347 15.8852 6.98671 15.9558 7.23987 15.9558C7.7126 15.9558 7.98276 15.7264 7.98276 15.4086C7.98276 15.1086 7.76327 14.9497 7.42559 14.8968L7.25679 14.8791C7.10483 14.8614 6.98671 14.8262 6.98671 14.7203C6.98671 14.5967 7.10483 14.5261 7.29055 14.5261C7.49319 14.5261 7.69575 14.6143 7.79703 14.6673L7.949 14.3673ZM17.3692 14.1908C17.1666 14.1908 17.0315 14.2967 16.9471 14.4379V14.2261H16.5926V15.9205H16.9471V14.9674C16.9471 14.685 17.0653 14.5261 17.2847 14.5261C17.3523 14.5261 17.4367 14.5438 17.5043 14.5614L17.6056 14.2085C17.538 14.1908 17.4367 14.1908 17.3692 14.1908ZM12.8448 15.0733C12.8448 15.5851 13.1824 15.9558 13.7058 15.9558C13.9421 15.9558 14.1109 15.9029 14.2797 15.7617L14.1109 15.4616C13.9759 15.5675 13.8408 15.6204 13.6889 15.6204C13.4019 15.6204 13.1993 15.4086 13.1993 15.0733C13.1993 14.7556 13.4019 14.5438 13.6889 14.5261C13.8408 14.5261 13.9759 14.579 14.1109 14.685L14.2797 14.385C14.1109 14.2437 13.9421 14.1908 13.7058 14.1908C13.1824 14.1908 12.8448 14.5614 12.8448 15.0733ZM16.1199 15.0733V14.2261H15.7654V14.4379C15.6472 14.2791 15.4784 14.1908 15.2589 14.1908C14.8031 14.1908 14.4486 14.5614 14.4486 15.0733C14.4486 15.5851 14.8031 15.9558 15.2589 15.9558C15.4953 15.9558 15.6641 15.8676 15.7654 15.7087V15.9205H16.1199V15.0733ZM14.82 15.0733C14.82 14.7732 15.0057 14.5261 15.3095 14.5261C15.5965 14.5261 15.7992 14.7556 15.7992 15.0733C15.7992 15.3733 15.5965 15.6204 15.3095 15.6204C15.0057 15.6027 14.82 15.3733 14.82 15.0733ZM10.5826 14.1908C10.1099 14.1908 9.77221 14.5438 9.77221 15.0733C9.77221 15.6028 10.1098 15.9558 10.5995 15.9558C10.8358 15.9558 11.0722 15.8852 11.2579 15.7264L11.089 15.4616C10.954 15.5675 10.7852 15.6381 10.6164 15.6381C10.3969 15.6381 10.1774 15.5322 10.1267 15.2321H11.3254V15.091C11.3423 14.5438 11.0384 14.1908 10.5825 14.1908H10.5826ZM10.5826 14.5085C10.802 14.5085 10.9541 14.6497 10.9877 14.9145H10.1437C10.1774 14.685 10.3294 14.5085 10.5826 14.5085ZM19.3782 15.0733V13.5554H19.0236V14.4379C18.9054 14.2791 18.7366 14.1908 18.5172 14.1908C18.0614 14.1908 17.7068 14.5614 17.7068 15.0733C17.7068 15.5851 18.0614 15.9558 18.5172 15.9558C18.7536 15.9558 18.9224 15.8676 19.0236 15.7087V15.9205H19.3782V15.0733ZM18.0783 15.0733C18.0783 14.7732 18.2639 14.5261 18.5678 14.5261C18.8548 14.5261 19.0574 14.7556 19.0574 15.0733C19.0574 15.3733 18.8548 15.6204 18.5678 15.6204C18.2639 15.6027 18.0783 15.3733 18.0783 15.0733ZM6.22698 15.0733V14.2261H5.87246V14.4379C5.75426 14.2791 5.58546 14.1908 5.36598 14.1908C4.91017 14.1908 4.55565 14.5614 4.55565 15.0733C4.55565 15.5851 4.91017 15.9558 5.36598 15.9558C5.60238 15.9558 5.77118 15.8676 5.87246 15.7087V15.9205H6.22698V15.0733ZM4.91017 15.0733C4.91017 14.7732 5.09589 14.5261 5.39974 14.5261C5.68674 14.5261 5.88938 14.7556 5.88938 15.0733C5.88938 15.3733 5.68674 15.6204 5.39974 15.6204C5.09589 15.6027 4.91017 15.3733 4.91017 15.0733Z" fill="black"/>
            <path d="M7.83105 1.35905H13.1489V11.3491H7.83105V1.35905Z" fill="#FF5F00"/>
            <path d="M8.16883 6.35409C8.16883 4.32434 9.08044 2.52398 10.4816 1.35904C9.45188 0.511839 8.15199 0 6.7339 0C3.37423 0 0.65625 2.84165 0.65625 6.35409C0.65625 9.86645 3.37423 12.7082 6.73382 12.7082C8.15191 12.7082 9.4518 12.1963 10.4816 11.3491C9.08044 10.2018 8.16883 8.38384 8.16883 6.35409Z" fill="#EB001B"/>
            <path d="M20.3241 6.35409C20.3241 9.86645 17.6062 12.7082 14.2466 12.7082C12.8285 12.7082 11.5286 12.1963 10.4988 11.3491C11.9169 10.1842 12.8116 8.38384 12.8116 6.35409C12.8116 4.32434 11.9 2.52398 10.4988 1.35904C11.5285 0.511839 12.8285 0 14.2466 0C17.6062 0 20.3242 2.85934 20.3242 6.35409H20.3241Z" fill="#F79E1B"/>
        </g>
    </symbol>

    <symbol id="americanExpress" viewBox="0 0 16 16">
        <g>
            <path d="M0.9466 15.178V8.25049L0.807175 8.14689V6.86254L1.00999 5.88951V0.830072H14.9775V8.40628L15.1551 8.67874V10.9748L14.9523 11.2732V15.178H0.9466Z" fill="white"/>
            <path d="M14.0422 9.17416C13.952 9.25161 13.9131 9.36786 13.9131 9.50989C13.9131 9.98765 14.3006 10.0004 14.675 10.0004H14.7396C14.8298 10.0134 14.8687 10.0263 14.9073 10.0522C14.9462 10.0909 14.9718 10.1294 14.9718 10.194C14.9718 10.2458 14.9462 10.2975 14.9073 10.3231C14.8686 10.362 14.8171 10.3749 14.7266 10.3749H13.9649V10.6848H14.7266C15.1398 10.6848 15.3464 10.5168 15.3464 10.1683C15.3464 10.0133 15.3074 9.91019 15.23 9.83261C15.1398 9.74213 15.0106 9.70347 14.7781 9.70347L14.5588 9.69045C14.4813 9.69045 14.4424 9.69045 14.3908 9.67744C14.3263 9.65179 14.2747 9.58722 14.2747 9.50976C14.2747 9.44519 14.3006 9.39364 14.3522 9.36774C14.4037 9.32882 14.4554 9.32882 14.5329 9.32882H15.2559V9.01899H14.4683C14.2747 9.01911 14.1327 9.0708 14.0422 9.17416Z" fill="white"/>
            <path d="M15.3726 10.1684C15.3726 10.5427 15.1403 10.7104 14.727 10.7104H13.9394V10.349H14.727C14.8045 10.349 14.8561 10.336 14.8947 10.2975C14.9206 10.2845 14.9336 10.2459 14.9336 10.194C14.9336 10.1424 14.9206 10.1038 14.8947 10.0779C14.856 10.0522 14.8175 10.0392 14.7399 10.0392C14.3653 10.0262 13.8749 10.0522 13.8749 9.50992C13.8749 9.25177 14.0299 8.9935 14.4687 8.9935H15.2822V9.36789H14.5333C14.4558 9.36789 14.4172 9.36789 14.3654 9.3938C14.3267 9.41944 14.3138 9.45811 14.3138 9.50992C14.3138 9.57448 14.3527 9.62604 14.4043 9.63905C14.443 9.65207 14.4948 9.6647 14.5593 9.6647H14.7787C15.0112 9.67772 15.1533 9.71651 15.2436 9.80672C15.3339 9.89719 15.3726 10.0004 15.3726 10.1684ZM13.6426 9.80672C13.5522 9.71651 13.3971 9.67759 13.1778 9.6647H12.9582C12.8807 9.6647 12.842 9.65194 12.7902 9.63905C12.7387 9.62604 12.7 9.57448 12.7 9.50992C12.7 9.45811 12.7257 9.41944 12.7646 9.3938C12.8032 9.36789 12.8548 9.36789 12.9323 9.36789H13.6812V8.9935H12.8547C12.4287 8.9935 12.2737 9.25165 12.2737 9.50992C12.2737 10.0522 12.7514 10.0263 13.1387 10.0392C13.2033 10.0392 13.2548 10.0522 13.2807 10.0779C13.3066 10.1038 13.3323 10.1424 13.3323 10.194C13.3323 10.2458 13.3066 10.2845 13.2807 10.2975C13.2421 10.3362 13.1903 10.349 13.1131 10.349H12.3252V10.7104H13.1257C13.5389 10.7104 13.7713 10.5427 13.7713 10.1684C13.7715 10.0004 13.72 9.89719 13.6426 9.80672ZM12.0802 10.3621H11.112V10.0134H12.0546V9.66483H11.112V9.35501H12.0802V8.99363H10.6988V10.7105H12.0802V10.3621ZM10.2598 9.07083C10.1307 9.00626 9.97565 8.99363 9.76906 8.99363H8.81381V10.7105H9.227V10.091H9.67884C9.82087 10.091 9.91108 10.104 9.97565 10.1685C10.0531 10.2459 10.0402 10.4007 10.0402 10.4912V10.7105H10.4534V10.3751C10.4534 10.22 10.4404 10.1426 10.3888 10.065C10.3502 10.0134 10.2727 9.94887 10.1822 9.91021C10.2713 9.87319 10.3472 9.81033 10.4001 9.72974C10.4531 9.64915 10.4807 9.55453 10.4793 9.45811C10.4794 9.26441 10.389 9.14829 10.2598 9.07083ZM7.93589 8.9935H6.61901L6.1026 9.56147L5.59907 8.9935H3.93345V10.7104H5.57317L6.08958 10.1424L6.59311 10.7104H7.39357V10.1424H7.90999C8.27149 10.1424 8.62011 10.0392 8.62011 9.56147C8.62011 9.08372 8.2586 8.9935 7.93589 8.9935ZM9.93712 9.70362C9.87255 9.72927 9.80798 9.72927 9.73052 9.72927H9.22712V9.35488H9.74354C9.80811 9.35488 9.88556 9.35488 9.93724 9.38078C9.98879 9.40643 10.0147 9.45798 10.0147 9.53556C10.0147 9.61315 9.98867 9.6647 9.93712 9.70362ZM7.93589 9.78107H7.39357V9.35488H7.93589C8.07792 9.35488 8.18128 9.40643 8.18128 9.56147C8.18128 9.70362 8.0908 9.78107 7.93589 9.78107ZM6.36074 9.85853L6.9934 9.17419V10.5556L6.36074 9.85853ZM5.35369 10.3621H4.34663V10.0134H5.25045V9.66483H4.34663V9.35501H5.37959L5.83144 9.85866L5.35369 10.3621ZM14.2362 7.75396H13.6553L12.8807 6.46286V7.75396H12.0416L11.8736 7.36655H11.0215L10.8667 7.75396H10.389C10.1824 7.75396 9.93712 7.71517 9.79509 7.56026C9.65307 7.41823 9.57548 7.22453 9.57548 6.90169C9.57548 6.65644 9.6144 6.42407 9.79509 6.23037C9.92423 6.10123 10.1308 6.03667 10.4149 6.03667H10.8152V6.39817H10.4276C10.2728 6.39817 10.1954 6.42407 10.1049 6.50153C10.0403 6.57898 9.9888 6.721 9.9888 6.90169C9.9888 7.08251 10.0277 7.21164 10.1049 7.30199C10.1695 7.36655 10.2859 7.39233 10.3891 7.39233H10.5698L11.1508 6.03667H11.7705L12.4676 7.66349V6.03679H13.0874L13.8104 7.23755V6.03679H14.2364V7.75396H14.2362ZM9.36915 6.03679H8.95596V7.75396H9.36915V6.03679ZM8.50412 6.11425C8.37498 6.03679 8.21994 6.03679 8.01335 6.03679H7.05797V7.75396H7.47116V7.13419H7.91012C8.0649 7.13419 8.15537 7.1472 8.20705 7.19875C8.28451 7.2891 8.28451 7.43112 8.28451 7.53448V7.75396H8.69769V7.41823C8.69769 7.26332 8.68468 7.18587 8.62024 7.10841C8.59433 7.05673 8.51675 6.99216 8.42653 6.9535C8.52976 6.91471 8.71071 6.77268 8.71071 6.50153C8.71071 6.30795 8.63312 6.19183 8.50412 6.11425ZM6.7738 7.39246H5.81842V7.05686H6.74802V6.70824H5.81842V6.39842H6.7738V6.03692H5.40536V7.75409H6.77392V7.39246H6.7738ZM5.09554 6.03679H4.4112L3.92056 7.19875L3.37824 6.03679H2.70691V7.66362L2.00968 6.03679H1.40292L0.667023 7.75396H1.10598L1.27378 7.36655H2.12593L2.28084 7.75396H3.12009V6.41118L3.71397 7.75396H4.07547L4.66947 6.41118V7.75396H5.09554V6.03679ZM11.7317 7.01807L11.4476 6.33385L11.1764 7.01807H11.7317ZM8.16839 6.74691C8.11684 6.77269 8.05201 6.77268 7.97468 6.77268H7.47116V6.39829H7.97468C8.05201 6.39829 8.12947 6.3983 8.16839 6.4242C8.23296 6.44997 8.2586 6.50165 8.2586 6.57911C8.2586 6.65656 8.23296 6.70812 8.16839 6.74691ZM1.41581 7.01807L1.69985 6.33385L1.9839 7.01807H1.41581ZM15.2823 0.665945H0.667023V6.83725L1.15766 5.70119H2.22929L2.37131 5.98524V5.70119H3.62362L3.89478 6.30795L4.16594 5.70119H8.1555C8.33619 5.70119 8.50412 5.72697 8.62036 5.83033V5.70119H9.71776V5.83033C9.89845 5.72697 10.1309 5.70119 10.4021 5.70119H11.9773L12.132 5.98524V5.70119H13.2941L13.4618 5.98524V5.70119H14.598V8.08956H13.4488L13.2294 7.72806V8.08956H11.7964L11.6414 7.71517H11.2798L11.125 8.08956H10.3761C10.0793 8.08956 9.85966 8.02499 9.71764 7.94766V8.08956H7.93589V7.54737C7.93589 7.46991 7.923 7.46991 7.87132 7.46991H7.80676V8.08956H4.37241V7.79262L4.25629 8.08956H3.53328L3.41703 7.80551V8.08956H2.03558L1.88067 7.71517H1.51917L1.36425 8.08956H0.667023V15.3326H15.2823V10.943C15.1144 11.0205 14.8948 11.0592 14.6755 11.0592H13.6167V10.9041C13.4876 10.9946 13.2681 11.0592 13.0614 11.0592H9.70449V10.4912C9.70449 10.4266 9.69173 10.4266 9.62704 10.4266H9.57548V11.0592H8.4652V10.4007C8.28451 10.4782 8.0649 10.4912 7.8971 10.4912H7.75508V11.0592H6.42531L6.08958 10.6848L5.74096 11.0592H3.57207V8.6579H5.77976L6.1026 9.01928L6.4382 8.6579H7.923C8.0908 8.6579 8.37498 8.67066 8.50412 8.78704V8.6579H9.821C9.95013 8.6579 10.2213 8.68355 10.389 8.78704V8.6579H12.3903V8.78704C12.4935 8.69657 12.7001 8.6579 12.8808 8.6579H14.0041V8.78704C14.1202 8.70958 14.2883 8.6579 14.5205 8.6579H15.2825V0.665945H15.2823Z" fill="#0077A6"/>
        </g>
    </symbol>

    <symbol id="discover" viewBox="0 0 21 16">
        <g>
            <path d="M19.3036 4.90996C19.7841 4.81544 20.0461 4.50907 20.0461 4.03254C20.0461 2.95465 18.8429 3.10972 17.9455 3.10972L17.9455 6.21098H18.5809V4.97051H18.6683L19.5498 6.21098H20.3282L19.3036 4.90996ZM18.7674 4.5469H18.5808V3.60522H18.7754C19.1764 3.60522 19.3949 3.764 19.3949 4.06284C19.3949 4.3805 19.1764 4.5469 18.7674 4.5469Z" fill="#081D31"/>
            <path d="M15.7255 3.11351H17.5245V3.64297H16.361V4.33135H17.4848V4.85319H16.361V5.69283H17.5245V6.21472H15.7255V3.11351Z" fill="#081D31"/>
            <path d="M12.9974 3.11351L13.8671 5.20115L14.7487 3.11351H15.4437L14.0339 6.29795H13.6924L12.3025 3.11351H12.9974Z" fill="#081D31"/>
            <path d="M10.7776 3.00012C11.7585 3.00012 12.5487 3.75649 12.5487 4.68688C12.5487 5.62104 11.7545 6.3737 10.7776 6.3737C9.79673 6.3737 9.0065 5.61723 9.0065 4.68688C9.00645 3.75272 9.80079 3.00012 10.7776 3.00012Z" fill="url(#paint0_linear_2_1899)"/>
            <path d="M8.81983 3.2307V3.94929C8.0217 3.18911 6.9614 3.77159 6.9614 4.66787C6.9614 5.61342 8.05341 6.12401 8.81983 5.39404V6.11263C7.64044 6.65343 6.30612 5.89706 6.30612 4.66787C6.30612 3.48785 7.62058 2.66341 8.81983 3.2307Z" fill="#081D31"/>
            <path d="M4.95992 5.73808C5.41261 5.73808 5.84945 5.15946 4.82887 4.81532C4.23327 4.60728 4.02673 4.38419 4.02673 3.95682C4.02673 3.07935 5.24184 2.76927 6.00036 3.41607L5.66677 3.82443C5.2538 3.38577 4.67795 3.58995 4.67795 3.91909C4.67795 4.08544 4.7852 4.17996 5.16641 4.30853C5.88917 4.55816 6.10361 4.78135 6.10361 5.2767C6.10361 6.39246 4.56281 6.69125 3.85596 5.70407L4.26503 5.32968C4.41189 5.59817 4.65809 5.73808 4.95992 5.73808Z" fill="#081D31"/>
            <path d="M3.60977 3.11351H2.97435V6.21472H3.60977V3.11351Z" fill="#081D31"/>
            <path d="M21 11.1744V7.31733C19.8154 8.02194 12.9534 11.3645 6.21565 12.5694H19.4202C20.2226 12.5599 21 11.9389 21 11.1744Z" fill="url(#paint1_linear_2_1899)"/>
            <path d="M0.929295 3.11351H0V6.21472H0.929243C2.15631 6.21472 2.68048 5.3676 2.68048 4.66792C2.68053 3.75644 1.96573 3.11351 0.929295 3.11351ZM1.6718 5.45078C1.47722 5.61718 1.21116 5.69283 0.802138 5.69283H0.635316V3.64297H0.802138C1.21116 3.64297 1.46532 3.70728 1.6718 3.89255C1.89815 4.08172 2.02526 4.36908 2.02526 4.66787C2.02531 4.96667 1.89815 5.25407 1.6718 5.45078Z" fill="#081D31"/>
        </g>
    </symbol>

    <symbol id="paypal" viewBox="0 0 58 20">
        <g>
            <path d="M42.8316 6.81154H40.0159C39.8503 6.81154 39.6846 6.97717 39.6018 7.1428L38.4424 14.4307C38.4424 14.5963 38.5252 14.6791 38.6908 14.6791H40.1815C40.3472 14.6791 40.43 14.5963 40.43 14.4307L40.7612 12.3602C40.7612 12.1946 40.9269 12.029 41.1753 12.029H42.0863C43.9911 12.029 45.0677 11.118 45.3161 9.29603C45.4818 8.55069 45.3161 7.88815 44.9849 7.47407C44.488 7.05999 43.7426 6.81154 42.8316 6.81154ZM43.1629 9.54448C42.9973 10.5383 42.2519 10.5383 41.5066 10.5383H41.0097L41.3409 8.6335C41.3409 8.55069 41.4238 8.46787 41.5894 8.46787H41.755C42.2519 8.46787 42.7488 8.46787 42.9973 8.79913C43.1629 8.88195 43.1629 9.1304 43.1629 9.54448Z" fill="#139AD6"/>
            <path d="M22.5416 6.81154H19.7259C19.5602 6.81154 19.3946 6.97717 19.3118 7.1428L18.1523 14.4307C18.1523 14.5963 18.2352 14.6791 18.4008 14.6791H19.7259C19.8915 14.6791 20.0571 14.5135 20.1399 14.3478L20.4712 12.3602C20.4712 12.1946 20.6368 12.029 20.8853 12.029H21.7963C23.701 12.029 24.7776 11.118 25.0261 9.29603C25.1917 8.55069 25.0261 7.88815 24.6948 7.47407C24.1979 7.05999 23.5354 6.81154 22.5416 6.81154ZM22.8729 9.54448C22.7072 10.5383 21.9619 10.5383 21.2165 10.5383H20.8025L21.1337 8.6335C21.1337 8.55069 21.2165 8.46787 21.3822 8.46787H21.5478C22.0447 8.46787 22.5416 8.46787 22.79 8.79913C22.8729 8.88195 22.9557 9.1304 22.8729 9.54448Z" fill="#263B80"/>
            <path d="M31.0715 9.46169H29.7465C29.6636 9.46169 29.498 9.5445 29.498 9.62732L29.4152 10.0414L29.3324 9.87577C29.0011 9.46169 28.4214 9.29605 27.7589 9.29605C26.2682 9.29605 24.9431 10.4555 24.6947 12.029C24.5291 12.8572 24.7775 13.6025 25.1916 14.0994C25.6057 14.5963 26.1854 14.762 26.9307 14.762C28.173 14.762 28.8355 14.0166 28.8355 14.0166L28.7527 14.4307C28.7527 14.5963 28.8355 14.6791 29.0011 14.6791H30.2433C30.409 14.6791 30.5746 14.5135 30.6574 14.3479L31.4028 9.71013C31.3199 9.62732 31.1543 9.46169 31.0715 9.46169ZM29.1667 12.1118C29.0011 12.8572 28.4214 13.4369 27.5932 13.4369C27.1792 13.4369 26.8479 13.2713 26.6823 13.1056C26.5166 12.8572 26.4338 12.5259 26.4338 12.1118C26.5166 11.3665 27.1792 10.7868 27.9245 10.7868C28.3386 10.7868 28.587 10.9524 28.8355 11.118C29.0839 11.3665 29.1667 11.7806 29.1667 12.1118Z" fill="#263B80"/>
            <path d="M51.2786 9.46158H49.9535C49.8707 9.46158 49.7051 9.54439 49.7051 9.62721L49.6222 10.0413L49.5394 9.87566C49.2082 9.46158 48.6284 9.29594 47.9659 9.29594C46.4752 9.29594 45.1502 10.4554 44.9017 12.0289C44.7361 12.8571 44.9845 13.6024 45.3986 14.0993C45.8127 14.5962 46.3924 14.7618 47.1378 14.7618C48.38 14.7618 49.0425 14.0165 49.0425 14.0165L48.9597 14.4306C48.9597 14.5962 49.0425 14.679 49.2082 14.679H50.4504C50.616 14.679 50.7817 14.5134 50.8645 14.3478L51.6098 9.71003C51.527 9.62721 51.4442 9.46158 51.2786 9.46158ZM49.3738 12.1117C49.2082 12.8571 48.6284 13.4368 47.8003 13.4368C47.3862 13.4368 47.0549 13.2711 46.8893 13.1055C46.7237 12.8571 46.6409 12.5258 46.6409 12.1117C46.7237 11.3664 47.3862 10.7866 48.1315 10.7866C48.5456 10.7866 48.7941 10.9523 49.0425 11.1179C49.3738 11.3664 49.4566 11.7804 49.3738 12.1117Z" fill="#139AD6"/>
            <path d="M38.2767 9.46169H36.8688C36.7031 9.46169 36.6203 9.5445 36.5375 9.62732L34.7155 12.4431L33.8874 9.79295C33.8046 9.62732 33.7217 9.5445 33.4733 9.5445H32.1482C31.9826 9.5445 31.8998 9.71013 31.8998 9.87576L33.3905 14.265L31.9826 16.2526C31.8998 16.4182 31.9826 16.6667 32.1482 16.6667H33.4733C33.6389 16.6667 33.7217 16.5838 33.8046 16.501L38.3595 9.95858C38.6079 9.71013 38.4423 9.46169 38.2767 9.46169Z" fill="#263B80"/>
            <path d="M52.8524 7.05994L51.693 14.5134C51.693 14.679 51.7758 14.7618 51.9414 14.7618H53.1009C53.2665 14.7618 53.4321 14.5962 53.515 14.4306L54.6744 7.14275C54.6744 6.97712 54.5916 6.89431 54.4259 6.89431H53.1009C53.0181 6.81149 52.9352 6.89431 52.8524 7.05994Z" fill="#139AD6"/>
            <path d="M12.0239 4.32712C11.4441 3.66459 10.3675 3.33333 8.87685 3.33333H4.73604C4.48759 3.33333 4.23914 3.58178 4.15632 3.83022L2.5 14.6791C2.5 14.9276 2.66563 15.0932 2.83126 15.0932H5.39857L6.0611 11.0352V11.2009C6.14391 10.9524 6.39236 10.704 6.64081 10.704H7.88305C10.2847 10.704 12.1067 9.71017 12.6864 6.97724C12.6864 6.89442 12.6864 6.81161 12.6864 6.72879C12.6036 6.72879 12.6036 6.72879 12.6864 6.72879C12.7692 5.65218 12.6036 4.98965 12.0239 4.32712Z" fill="#263B80"/>
            <path d="M12.6037 6.72874C12.6037 6.81156 12.6037 6.89438 12.6037 6.97719C12.024 9.79294 10.2021 10.7039 7.80039 10.7039H6.55814C6.30969 10.7039 6.06125 10.9524 5.97843 11.2008L5.15027 16.2526C5.15027 16.4182 5.23308 16.5839 5.48153 16.5839H7.63475C7.8832 16.5839 8.13165 16.4182 8.13165 16.1698V16.087L8.54573 13.5197V13.354C8.54573 13.1056 8.79418 12.94 9.04263 12.94H9.37389C11.4443 12.94 13.1006 12.1118 13.5147 9.62731C13.6803 8.63352 13.5975 7.72254 13.1006 7.14283C13.0178 6.97719 12.8522 6.81156 12.6037 6.72874Z" fill="#139AD6"/>
            <path d="M12.0238 6.48032C11.941 6.48032 11.8582 6.3975 11.7754 6.3975C11.6925 6.3975 11.6097 6.3975 11.5269 6.31469C11.1956 6.23187 10.8644 6.23187 10.4503 6.23187H7.22046C7.13765 6.23187 7.05483 6.23187 6.97201 6.31469C6.80638 6.3975 6.72356 6.56314 6.72356 6.72877L6.06104 11.0352V11.2008C6.14385 10.9524 6.3923 10.7039 6.64075 10.7039H7.88299C10.2847 10.7039 12.1066 9.71015 12.6863 6.97722C12.6863 6.8944 12.6863 6.81158 12.7691 6.72877C12.6035 6.64595 12.5207 6.56314 12.3551 6.56314C12.1066 6.48032 12.1066 6.48032 12.0238 6.48032Z" fill="#232C65"/>
        </g>
    </symbol>

    <symbol id="btcCrypto" viewBox="0 0 21 20">
        <g>
            <path d="M10.5 18.3333C15.1023 18.3333 18.8333 14.6024 18.8333 10C18.8333 5.39763 15.1023 1.66667 10.5 1.66667C5.89759 1.66667 2.16663 5.39763 2.16663 10C2.16663 14.6024 5.89759 18.3333 10.5 18.3333Z" fill="#F7931A"/>
            <path d="M14.2442 8.96876C14.4077 7.87709 13.576 7.29011 12.4395 6.89844L12.8083 5.41928L11.9083 5.19532L11.5489 6.63542C11.3124 6.57605 11.0697 6.52084 10.8275 6.46563L11.1895 5.01615L10.2895 4.79167L9.92077 6.27032C9.72493 6.22553 9.53223 6.18178 9.34577 6.1349L9.34681 6.13021L8.10514 5.82032L7.86556 6.78178C7.86556 6.78178 8.53379 6.9349 8.51973 6.94428C8.88431 7.03542 8.94993 7.27657 8.939 7.46823L8.51921 9.15313C8.54421 9.15938 8.5765 9.16876 8.61296 9.18282L8.51764 9.15938L7.9291 11.5198C7.88431 11.6302 7.77129 11.7964 7.51608 11.7333C7.52546 11.7464 6.86191 11.5703 6.86191 11.5703L6.41504 12.6005L7.58691 12.8927C7.80462 12.9474 8.01816 13.0047 8.22806 13.0583L7.85566 14.5542L8.75514 14.7781L9.12389 13.299C9.36973 13.3651 9.60827 13.4266 9.8416 13.4849L9.47389 14.9578L10.3739 15.1818L10.7463 13.6891C12.2817 13.9797 13.4359 13.8625 13.9218 12.474C14.3135 11.3563 13.9025 10.7109 13.0947 10.2906C13.6833 10.1552 14.126 9.76824 14.2442 8.96876ZM12.1869 11.8531C11.9093 12.9714 10.0265 12.3667 9.41608 12.2151L9.91087 10.2333C10.5213 10.3859 12.4781 10.6875 12.1869 11.8531ZM12.4656 8.95261C12.2119 9.9698 10.6452 9.45261 10.1374 9.32605L10.5854 7.52917C11.0932 7.65573 12.7301 7.89167 12.4656 8.95261Z" fill="white"/>
        </g>
    </symbol>

    <symbol id="arrowDown" viewBox="0 0 20 20">
        <g>
            <path d="M10 13.3333C9.80532 13.3337 9.61662 13.2659 9.46669 13.1417L4.46669 8.97501C4.29651 8.83356 4.18949 8.6303 4.16918 8.40994C4.14886 8.18959 4.21691 7.97019 4.35836 7.80001C4.49981 7.62983 4.70307 7.52281 4.92342 7.50249C5.14378 7.48217 5.36318 7.55022 5.53336 7.69167L10 11.425L14.4667 7.82501C14.5519 7.75578 14.65 7.70409 14.7553 7.6729C14.8606 7.64171 14.971 7.63163 15.0802 7.64324C15.1894 7.65486 15.2952 7.68794 15.3916 7.74058C15.4879 7.79323 15.5729 7.8644 15.6417 7.95001C15.718 8.03569 15.7758 8.13621 15.8115 8.24527C15.8471 8.35434 15.8599 8.46959 15.8489 8.58381C15.838 8.69802 15.8036 8.80875 15.7478 8.90905C15.6921 9.00935 15.6162 9.09705 15.525 9.16667L10.525 13.1917C10.3708 13.2963 10.1859 13.3461 10 13.3333Z"/>
        </g>
    </symbol>

    <symbol id="arrowUp" viewBox="0 0 20 20">
        <g>
            <path d="M10 7.50089C9.80532 7.50051 9.61662 7.56832 9.46669 7.69256L4.46669 11.8592C4.29651 12.0007 4.18949 12.2039 4.16918 12.4243C4.14886 12.6446 4.21691 12.864 4.35836 13.0342C4.49981 13.2044 4.70307 13.3114 4.92342 13.3317C5.14378 13.3521 5.36318 13.284 5.53336 13.1426L10 9.40922L14.4667 13.0092C14.5519 13.0784 14.65 13.1301 14.7553 13.1613C14.8606 13.1925 14.971 13.2026 15.0802 13.191C15.1894 13.1794 15.2952 13.1463 15.3916 13.0936C15.4879 13.041 15.5729 12.9698 15.6417 12.8842C15.718 12.7985 15.7758 12.698 15.8115 12.589C15.8471 12.4799 15.8599 12.3646 15.8489 12.2504C15.838 12.1362 15.8036 12.0255 15.7478 11.9252C15.6921 11.8249 15.6162 11.7372 15.525 11.6676L10.525 7.64256C10.3708 7.53796 10.1859 7.48808 10 7.50089Z"/>
        </g>
    </symbol>

    <symbol id="paypalDisabled" viewBox="0 0 58 20">
        <g>
    <path d="M42.8316 6.81154H40.0159C39.8503 6.81154 39.6846 6.97717 39.6018 7.1428L38.4424 14.4307C38.4424 14.5963 38.5252 14.6791 38.6908 14.6791H40.1815C40.3472 14.6791 40.43 14.5963 40.43 14.4307L40.7612 12.3602C40.7612 12.1946 40.9269 12.029 41.1753 12.029H42.0863C43.9911 12.029 45.0677 11.118 45.3161 9.29603C45.4818 8.55069 45.3161 7.88815 44.9849 7.47407C44.488 7.05999 43.7426 6.81154 42.8316 6.81154ZM43.1629 9.54448C42.9973 10.5383 42.2519 10.5383 41.5066 10.5383H41.0097L41.3409 8.6335C41.3409 8.55069 41.4238 8.46787 41.5894 8.46787H41.755C42.2519 8.46787 42.7488 8.46787 42.9973 8.79913C43.1629 8.88195 43.1629 9.1304 43.1629 9.54448Z" fill="#E2ECFB"/>
    <path d="M22.5416 6.81154H19.7259C19.5602 6.81154 19.3946 6.97717 19.3118 7.1428L18.1523 14.4307C18.1523 14.5963 18.2352 14.6791 18.4008 14.6791H19.7259C19.8915 14.6791 20.0571 14.5135 20.1399 14.3478L20.4712 12.3602C20.4712 12.1946 20.6368 12.029 20.8853 12.029H21.7963C23.701 12.029 24.7776 11.118 25.0261 9.29603C25.1917 8.55069 25.0261 7.88815 24.6948 7.47407C24.1979 7.05999 23.5354 6.81154 22.5416 6.81154ZM22.8729 9.54448C22.7072 10.5383 21.9619 10.5383 21.2165 10.5383H20.8025L21.1337 8.6335C21.1337 8.55069 21.2165 8.46787 21.3822 8.46787H21.5478C22.0447 8.46787 22.5416 8.46787 22.79 8.79913C22.8729 8.88195 22.9557 9.1304 22.8729 9.54448Z" fill="#E2ECFB"/>
    <path d="M31.0715 9.46169H29.7465C29.6636 9.46169 29.498 9.5445 29.498 9.62732L29.4152 10.0414L29.3324 9.87577C29.0011 9.46169 28.4214 9.29605 27.7589 9.29605C26.2682 9.29605 24.9431 10.4555 24.6947 12.029C24.5291 12.8572 24.7775 13.6025 25.1916 14.0994C25.6057 14.5963 26.1854 14.762 26.9307 14.762C28.173 14.762 28.8355 14.0166 28.8355 14.0166L28.7527 14.4307C28.7527 14.5963 28.8355 14.6791 29.0011 14.6791H30.2433C30.409 14.6791 30.5746 14.5135 30.6574 14.3479L31.4028 9.71013C31.3199 9.62732 31.1543 9.46169 31.0715 9.46169ZM29.1667 12.1118C29.0011 12.8572 28.4214 13.4369 27.5932 13.4369C27.1792 13.4369 26.8479 13.2713 26.6823 13.1056C26.5166 12.8572 26.4338 12.5259 26.4338 12.1118C26.5166 11.3665 27.1792 10.7868 27.9245 10.7868C28.3386 10.7868 28.587 10.9524 28.8355 11.118C29.0839 11.3665 29.1667 11.7806 29.1667 12.1118Z" fill="#E2ECFB"/>
    <path d="M51.2786 9.46158H49.9535C49.8707 9.46158 49.7051 9.54439 49.7051 9.62721L49.6222 10.0413L49.5394 9.87566C49.2082 9.46158 48.6284 9.29594 47.9659 9.29594C46.4752 9.29594 45.1502 10.4554 44.9017 12.0289C44.7361 12.8571 44.9845 13.6024 45.3986 14.0993C45.8127 14.5962 46.3924 14.7618 47.1378 14.7618C48.38 14.7618 49.0425 14.0165 49.0425 14.0165L48.9597 14.4306C48.9597 14.5962 49.0425 14.679 49.2082 14.679H50.4504C50.616 14.679 50.7817 14.5134 50.8645 14.3478L51.6098 9.71003C51.527 9.62721 51.4442 9.46158 51.2786 9.46158ZM49.3738 12.1117C49.2082 12.8571 48.6284 13.4368 47.8003 13.4368C47.3862 13.4368 47.0549 13.2711 46.8893 13.1055C46.7237 12.8571 46.6409 12.5258 46.6409 12.1117C46.7237 11.3664 47.3862 10.7866 48.1315 10.7866C48.5456 10.7866 48.7941 10.9523 49.0425 11.1179C49.3738 11.3664 49.4566 11.7804 49.3738 12.1117Z" fill="#E2ECFB"/>
    <path d="M38.2767 9.46169H36.8688C36.7031 9.46169 36.6203 9.5445 36.5375 9.62732L34.7155 12.4431L33.8874 9.79295C33.8046 9.62732 33.7217 9.5445 33.4733 9.5445H32.1482C31.9826 9.5445 31.8998 9.71013 31.8998 9.87576L33.3905 14.265L31.9826 16.2526C31.8998 16.4182 31.9826 16.6667 32.1482 16.6667H33.4733C33.6389 16.6667 33.7217 16.5838 33.8046 16.501L38.3595 9.95858C38.6079 9.71013 38.4423 9.46169 38.2767 9.46169Z" fill="#E2ECFB"/>
    <path d="M52.8524 7.05994L51.693 14.5134C51.693 14.679 51.7758 14.7618 51.9414 14.7618H53.1009C53.2665 14.7618 53.4321 14.5962 53.515 14.4306L54.6744 7.14275C54.6744 6.97712 54.5916 6.89431 54.4259 6.89431H53.1009C53.0181 6.81149 52.9352 6.89431 52.8524 7.05994Z" fill="#E2ECFB"/>
    <path d="M12.0239 4.32712C11.4441 3.66459 10.3675 3.33333 8.87685 3.33333H4.73604C4.48759 3.33333 4.23914 3.58178 4.15632 3.83022L2.5 14.6791C2.5 14.9276 2.66563 15.0932 2.83126 15.0932H5.39857L6.0611 11.0352V11.2009C6.14391 10.9524 6.39236 10.704 6.64081 10.704H7.88305C10.2847 10.704 12.1067 9.71017 12.6864 6.97724C12.6864 6.89442 12.6864 6.81161 12.6864 6.72879C12.6036 6.72879 12.6036 6.72879 12.6864 6.72879C12.7692 5.65218 12.6036 4.98965 12.0239 4.32712Z" fill="#E2ECFB"/>
    <path d="M12.6037 6.72874C12.6037 6.81156 12.6037 6.89438 12.6037 6.97719C12.024 9.79294 10.2021 10.7039 7.80039 10.7039H6.55814C6.30969 10.7039 6.06125 10.9524 5.97843 11.2008L5.15027 16.2526C5.15027 16.4182 5.23308 16.5839 5.48153 16.5839H7.63475C7.8832 16.5839 8.13165 16.4182 8.13165 16.1698V16.087L8.54573 13.5197V13.354C8.54573 13.1056 8.79418 12.94 9.04263 12.94H9.37389C11.4443 12.94 13.1006 12.1118 13.5147 9.62731C13.6803 8.63352 13.5975 7.72254 13.1006 7.14283C13.0178 6.97719 12.8522 6.81156 12.6037 6.72874Z" fill="#E2ECFB"/>
    <path d="M12.0238 6.48032C11.941 6.48032 11.8582 6.3975 11.7754 6.3975C11.6925 6.3975 11.6097 6.3975 11.5269 6.31469C11.1956 6.23187 10.8644 6.23187 10.4503 6.23187H7.22046C7.13765 6.23187 7.05483 6.23187 6.97201 6.31469C6.80638 6.3975 6.72356 6.56314 6.72356 6.72877L6.06104 11.0352V11.2008C6.14385 10.9524 6.3923 10.7039 6.64075 10.7039H7.88299C10.2847 10.7039 12.1066 9.71015 12.6863 6.97722C12.6863 6.8944 12.6863 6.81158 12.7691 6.72877C12.6035 6.64595 12.5207 6.56314 12.3551 6.56314C12.1066 6.48032 12.1066 6.48032 12.0238 6.48032Z" fill="white"/>
        </g>
    </symbol>

    <symbol id="btcCryptoDisabled" viewBox="0 0 21 20">
        <g>
            <path xmlns="http://www.w3.org/2000/svg" d="M14.2442 8.96876C14.4077 7.87709 13.576 7.29011 12.4395 6.89844L12.8083 5.41928L11.9083 5.19532L11.5489 6.63542C11.3124 6.57605 11.0697 6.52084 10.8275 6.46563L11.1895 5.01615L10.2895 4.79167L9.92077 6.27032C9.72493 6.22553 9.53223 6.18178 9.34577 6.1349L9.34681 6.13021L8.10514 5.82032L7.86556 6.78178C7.86556 6.78178 8.53379 6.9349 8.51973 6.94428C8.88431 7.03542 8.94993 7.27657 8.939 7.46823L8.51921 9.15313C8.54421 9.15938 8.5765 9.16876 8.61296 9.18282L8.51764 9.15938L7.9291 11.5198C7.88431 11.6302 7.77129 11.7964 7.51608 11.7333C7.52546 11.7464 6.86191 11.5703 6.86191 11.5703L6.41504 12.6005L7.58691 12.8927C7.80462 12.9474 8.01816 13.0047 8.22806 13.0583L7.85566 14.5542L8.75514 14.7781L9.12389 13.299C9.36973 13.3651 9.60827 13.4266 9.8416 13.4849L9.47389 14.9578L10.3739 15.1818L10.7463 13.6891C12.2817 13.9797 13.4359 13.8625 13.9218 12.474C14.3135 11.3563 13.9025 10.7109 13.0947 10.2906C13.6833 10.1552 14.126 9.76824 14.2442 8.96876ZM12.1869 11.8531C11.9093 12.9714 10.0265 12.3667 9.41608 12.2151L9.91087 10.2333C10.5213 10.3859 12.4781 10.6875 12.1869 11.8531ZM12.4656 8.95261C12.2119 9.9698 10.6452 9.45261 10.1374 9.32605L10.5854 7.52917C11.0932 7.65573 12.7301 7.89167 12.4656 8.95261Z" fill="white"/>
        </g>
    </symbol>

    <symbol id="inst" viewBox="0 0 24 24">
        <g>
            <path d="M7.67998 22.08H16.32C19.5009 22.08 22.08 19.501 22.08 16.32V7.68004C22.08 4.49908 19.5009 1.92004 16.32 1.92004H7.67998C4.49902 1.92004 1.91998 4.49908 1.91998 7.68004V16.32C1.91998 19.501 4.49902 22.08 7.67998 22.08Z" stroke="white" stroke-miterlimit="10"/>
            <path d="M12 7.19995C10.7269 7.19995 9.50601 7.70566 8.60584 8.60584C7.70566 9.50601 7.19995 10.7269 7.19995 12C7.19995 13.273 7.70566 14.4939 8.60584 15.3941C9.50601 16.2942 10.7269 16.7999 12 16.7999C13.273 16.7999 14.4939 16.2942 15.3941 15.3941C16.2942 14.4939 16.7999 13.273 16.7999 12C16.7999 10.7269 16.2942 9.50601 15.3941 8.60584C14.4939 7.70566 13.273 7.19995 12 7.19995Z" stroke="white" stroke-miterlimit="10"/>
            <path d="M17.76 5.28003C17.5054 5.28003 17.2613 5.38117 17.0812 5.56121C16.9012 5.74124 16.8 5.98542 16.8 6.24003C16.8 6.49464 16.9012 6.73882 17.0812 6.91885C17.2613 7.09889 17.5054 7.20003 17.76 7.20003C18.0147 7.20003 18.2588 7.09889 18.4389 6.91885C18.6189 6.73882 18.72 6.49464 18.72 6.24003C18.72 5.98542 18.6189 5.74124 18.4389 5.56121C18.2588 5.38117 18.0147 5.28003 17.76 5.28003Z" fill="white"/>
        </g>
    </symbol>

    <symbol id="fb" viewBox="0 0 50 50">
        <g >
            <path d="M 9 4 C 6.2504839 4 4 6.2504839 4 9 L 4 41 C 4 43.749516 6.2504839 46 9 46 L 25.832031 46 A 1.0001 1.0001 0 0 0 26.158203 46 L 31.832031 46 A 1.0001 1.0001 0 0 0 32.158203 46 L 41 46 C 43.749516 46 46 43.749516 46 41 L 46 9 C 46 6.2504839 43.749516 4 41 4 L 9 4 z M 9 6 L 41 6 C 42.668484 6 44 7.3315161 44 9 L 44 41 C 44 42.668484 42.668484 44 41 44 L 33 44 L 33 30 L 36.820312 30 L 38.220703 23 L 33 23 L 33 21 C 33 20.442508 33.05305 20.398929 33.240234 20.277344 C 33.427419 20.155758 34.005822 20 35 20 L 38 20 L 38 14.369141 L 37.429688 14.097656 C 37.429688 14.097656 35.132647 13 32 13 C 29.75 13 27.901588 13.896453 26.71875 15.375 C 25.535912 16.853547 25 18.833333 25 21 L 25 23 L 22 23 L 22 30 L 25 30 L 25 44 L 9 44 C 7.3315161 44 6 42.668484 6 41 L 6 9 C 6 7.3315161 7.3315161 6 9 6 z M 32 15 C 34.079062 15 35.38736 15.458455 36 15.701172 L 36 18 L 35 18 C 33.849178 18 32.926956 18.0952 32.150391 18.599609 C 31.373826 19.104024 31 20.061492 31 21 L 31 25 L 35.779297 25 L 35.179688 28 L 31 28 L 31 44 L 27 44 L 27 28 L 24 28 L 24 25 L 27 25 L 27 21 C 27 19.166667 27.464088 17.646453 28.28125 16.625 C 29.098412 15.603547 30.25 15 32 15 z" fill="white" />
        </g>
    </symbol>

    <symbol id="yt" viewBox="0 0 24 24">
        <g>
            <path d="M11.7119 5.27995C15.1679 5.27995 17.9519 5.56795 19.2959 5.80795C20.0159 5.99995 20.5919 6.47995 20.6879 7.10395C20.9759 8.63995 21.1679 10.2719 21.1679 11.9519C21.1199 14.0159 20.8799 15.6959 20.6879 16.8959C20.5439 17.8079 19.5839 18.0959 19.2959 18.1919C17.5679 18.5279 14.6879 18.7679 11.8079 18.7679C8.92794 18.7679 5.99994 18.5759 4.31994 18.1919C3.59994 17.9999 3.02394 17.5199 2.92794 16.8959C2.54394 15.5519 2.39994 13.7759 2.39994 11.9999C2.39994 9.79195 2.59194 8.15995 2.78394 7.15195C2.92794 6.23995 3.93594 5.95195 4.17594 5.85595C5.75994 5.51995 8.68794 5.27995 11.7119 5.27995ZM11.7119 4.31995C8.54394 4.31995 5.56794 4.55995 3.98394 4.89595C2.92794 5.13595 2.01594 5.85595 1.82394 6.95995C1.63194 8.11195 1.43994 9.83995 1.43994 11.9999C1.43994 14.1599 1.63194 15.8399 1.87194 17.0399C2.06394 18.0959 2.97594 18.8639 4.03194 19.1039C5.71194 19.4399 8.59194 19.6799 11.7599 19.6799C14.9279 19.6799 17.8079 19.4399 19.4879 19.1039C20.5439 18.8639 21.4559 18.1439 21.6479 17.0399C21.8399 15.8399 22.0799 14.1119 22.1279 11.9519C22.1279 9.79195 21.8879 8.06395 21.6479 6.86395C21.4559 5.80795 20.5439 5.03995 19.4879 4.79995C17.8079 4.55995 14.8799 4.31995 11.7119 4.31995Z" fill="white"/>
            <path d="M10.08 9.79203L13.92 12L10.08 14.208V9.79203ZM9.12 8.16003V15.84L15.84 12L9.12 8.16003Z" fill="white"/></g>
    </symbol>
</svg>