<svg width="20" height="20" viewBox="0 0 20 20" fill="none" xmlns="http://www.w3.org/2000/svg">
<rect x="0.933358" y="1.13331" width="18.1333" height="18.1333" stroke="#2F80ED" stroke-width="1.06667"/>
<line x1="3.67616" y1="0.599976" x2="3.67615" y2="19.8" stroke="#2F80ED" stroke-width="1.06667"/>
<path d="M10.7241 9.93477C10.2071 9.93477 9.76667 9.75275 9.40263 9.38872C9.0386 9.02468 8.85658 8.5842 8.85658 8.06727C8.85658 7.55034 9.0386 7.10986 9.40263 6.74582C9.76667 6.38179 10.2071 6.19977 10.7241 6.19977C11.241 6.19977 11.6815 6.38179 12.0455 6.74582C12.4096 7.10986 12.5916 7.55034 12.5916 8.06727C12.5916 8.5842 12.4096 9.02468 12.0455 9.38872C11.6815 9.75275 11.241 9.93477 10.7241 9.93477ZM10.7241 10.874C11.1828 10.874 11.6888 10.9395 12.2421 11.0706C12.7954 11.2016 13.3014 11.4164 13.7601 11.7149C14.2188 12.0134 14.4482 12.352 14.4482 12.7306V13.6698H7V12.7306C7 12.352 7.22934 12.0134 7.68803 11.7149C8.14671 11.4164 8.65272 11.2016 9.20605 11.0706C9.75939 10.9395 10.2654 10.874 10.7241 10.874Z" stroke="#2F80ED" stroke-width="0.96"/>
</svg>
